<svg width="25" height="25" viewBox="0 0 25 25" fill="none" xmlns="http://www.w3.org/2000/svg">
<circle cx="12.5" cy="12.5" r="12.2" stroke="#C47C5A" stroke-width="0.6"/>
<mask id="mask0" mask-type="alpha" maskUnits="userSpaceOnUse" x="1" y="1" width="23" height="23">
<circle cx="12.5" cy="12.5" r="10.7143" fill="#C4C4C4"/>
</mask>
<g mask="url(#mask0)">
<rect x="-3.57144" y="1.78571" width="32.1429" height="7.14286" fill="white"/>
<rect x="-3.57144" y="8.92856" width="32.1429" height="7.14286" fill="#2954EE"/>
<rect x="-3.57144" y="16.0714" width="32.1429" height="7.14286" fill="#CC0000"/>
</g>
<mask id="mask1" mask-type="alpha" maskUnits="userSpaceOnUse" x="1" y="1" width="23" height="23">
<circle cx="12.5" cy="12.5" r="10.7143" fill="#C4C4C4"/>
</mask>
<g mask="url(#mask1)">
<rect x="-3.57144" y="1.78571" width="32.1429" height="7.14286" fill="#CC0000"/>
<rect x="-3.57144" y="8.92856" width="32.1429" height="7.14286" fill="#2954EE"/>
<rect x="-3.57144" y="16.0714" width="32.1429" height="7.14286" fill="#FF9900"/>
</g>
<circle cx="12.5" cy="12.5" r="12.2" stroke="#C47C5A" stroke-width="0.6"/>
<circle cx="12.5" cy="12.5" r="12.2" stroke="#C47C5A" stroke-width="0.6"/>
<mask id="mask2" mask-type="alpha" maskUnits="userSpaceOnUse" x="1" y="1" width="23" height="23">
<circle cx="12.5" cy="12.5" r="10.7143" fill="#C4C4C4"/>
</mask>
<g mask="url(#mask2)">
<path d="M26 1H-1V24H26V1Z" fill="#F0F0F0"/>
<path d="M14.1875 -2H10.8125V9.78124H-1V15.2188H10.8125V27H14.1875V15.2188H26V9.78124H14.1875V-2Z" fill="#D80027"/>
<path d="M20 16L26 21V16H20Z" fill="#0052B4"/>
<path d="M15 16L26 24V21.7378L18.1106 16H15Z" fill="#0052B4"/>
<path d="M23 23L15 17V23H23Z" fill="#0052B4"/>
<path d="M15 16L26 24V21.7378L18.1106 16H15Z" fill="#F0F0F0"/>
<path d="M15 16L26 24V21.7378L18.1106 16H15Z" fill="#D80027"/>
<path d="M5 16L1 20V16H5Z" fill="#0052B4"/>
<path d="M10 17V24H0L10 17Z" fill="#0052B4"/>
<path d="M6.88939 16L-1 21.7378V24L10 16H6.88939Z" fill="#D80027"/>
<path d="M5 9L-1 4V9H5Z" fill="#0052B4"/>
<path d="M10 9L-1 1V3.2622L6.88939 9H10Z" fill="#0052B4"/>
<path d="M2 2L10 8V2H2Z" fill="#0052B4"/>
<path d="M10 9L-1 1V3.2622L6.88939 9H10Z" fill="#F0F0F0"/>
<path d="M10 9L-1 1V3.2622L6.88939 9H10Z" fill="#D80027"/>
<path d="M20 9L24 5V9H20Z" fill="#0052B4"/>
<path d="M15 8V1H25L15 8Z" fill="#0052B4"/>
<path d="M18.1106 9L26 3.2622V1L15 9H18.1106Z" fill="#D80027"/>
</g>
</svg>
