<svg width="217" height="43" viewBox="0 0 217 43" fill="none" xmlns="http://www.w3.org/2000/svg">
<path d="M6.67114 29.3958C6.99656 29.0704 7.15927 28.6365 7.15927 28.0942V25.0027H6.50844V28.1484C6.50844 28.528 6.39996 28.8535 6.12878 29.1246C5.91184 29.3416 5.58643 29.5043 5.26101 29.5043C4.9356 29.5043 4.66442 29.3958 4.39324 29.1789C4.12206 28.9077 4.01359 28.5823 4.01359 28.1484V25.1112H3.41699V28.1484C3.41699 28.745 3.63394 29.2331 4.01359 29.6128C4.39324 29.9382 4.82712 30.1551 5.31525 30.1551C5.80337 30.0466 6.29149 29.8297 6.67114 29.3958Z" fill="#C47C5A"/>
<path d="M12.3116 27.2806C12.5285 27.5518 12.637 27.823 12.637 28.2026V28.6908H13.2878V28.2569C13.2878 27.7145 13.1251 27.2264 12.7455 26.8467C12.3658 26.4671 11.9319 26.2501 11.3896 26.2501C11.1726 26.2501 10.9557 26.3044 10.7388 26.3586C10.4676 26.4671 10.3049 26.6298 10.1422 26.7925V24.9485H9.49133V29.8839H10.1422V28.1484C10.1422 27.7145 10.2506 27.3891 10.4676 27.1179C10.6845 26.8467 11.0099 26.7383 11.3354 26.7383C11.7692 26.8467 12.0404 27.0094 12.3116 27.2806Z" fill="#C47C5A"/>
<path d="M18.8741 26.7383C18.8741 26.3044 18.7114 25.9247 18.3318 25.5451C17.9521 25.1654 17.5182 24.9485 16.9759 24.9485C16.4877 24.9485 15.9996 25.1654 15.6742 25.5451C15.2945 25.9247 15.1318 26.3586 15.1318 26.8467C15.1318 27.4433 15.2945 27.9315 15.62 28.2569C15.9454 28.5823 16.4335 28.7992 16.9759 28.7992H18.2233V29.9924H18.8741V28.7992H19.6876V28.2026H18.8741V26.7383ZM18.2233 28.2026H17.0301C16.6504 28.2026 16.325 28.0942 16.1081 27.823C15.8911 27.606 15.7827 27.2264 15.7827 26.8467C15.7827 26.4671 15.8911 26.1417 16.1623 25.8705C16.3793 25.6536 16.7047 25.4908 17.0301 25.4908C17.4097 25.4908 17.6809 25.6536 17.9521 25.9247C18.169 26.1959 18.2775 26.4671 18.2775 26.7925V28.2026H18.2233Z" fill="#C47C5A"/>
<path d="M25.1111 29.1247C25.2196 28.9619 25.2738 28.7992 25.3281 28.6365C25.3823 28.4738 25.3823 28.3111 25.3823 28.0942V25.0027H24.7315V28.1484C24.7315 28.3654 24.6772 28.5823 24.623 28.745C24.4603 28.6365 24.3518 28.5281 24.2433 28.4738C24.0806 28.4196 23.9722 28.3654 23.8094 28.3111L23.5925 28.9077C23.701 28.9077 23.8094 28.9619 23.9179 29.0162C24.0264 29.0704 24.1349 29.1247 24.2433 29.1789C24.0264 29.3416 23.8094 29.3958 23.5383 29.3958C23.2129 29.3958 22.8874 29.2874 22.6705 29.0162C22.3993 28.745 22.2908 28.4196 22.2908 28.0399V24.8943H21.64V27.9857C21.64 28.5281 21.857 29.0162 22.2366 29.3958C22.6163 29.7755 23.0501 29.9382 23.5383 29.9382C23.7552 29.9382 23.9722 29.884 24.1891 29.8297C24.406 29.7755 24.5687 29.6128 24.7315 29.5043C24.8942 29.6128 25.0026 29.7212 25.1653 29.7755C25.3281 29.884 25.4908 29.9382 25.5992 29.9924L25.8162 29.3958C25.7077 29.3416 25.545 29.2874 25.4365 29.2331C25.3281 29.2874 25.2196 29.1789 25.1111 29.1247Z" fill="#C47C5A"/>
<path d="M29.667 24.9485C29.1247 24.9485 28.6908 25.1654 28.3654 25.5451C27.9857 25.9247 27.823 26.4129 27.823 27.0094V30.0467H28.4738V27.0094C28.4738 26.5756 28.5823 26.2501 28.7992 25.979C29.0162 25.7078 29.3416 25.5993 29.667 25.5993C30.0467 25.5993 30.3721 25.762 30.589 26.0332C30.806 26.3044 30.9144 26.5756 30.9144 26.9552V27.4433H31.5653V27.0094C31.5653 26.4671 31.4026 25.979 31.0229 25.5993C30.6433 25.2197 30.1551 24.9485 29.667 24.9485Z" fill="#C47C5A"/>
<path d="M0.65083 35.7957H0V40.7311H2.98297V40.1345H0.65083V35.7957Z" fill="#C47C5A"/>
<path d="M8.40652 39.8633C8.51499 39.7006 8.56923 39.5379 8.62346 39.3752C8.6777 39.2125 8.6777 39.0498 8.6777 38.8329V35.7957H8.02687V38.9413C8.02687 39.1583 7.97263 39.3752 7.9184 39.5379C7.75569 39.4295 7.64722 39.321 7.53874 39.2667C7.37604 39.2125 7.26757 39.1583 7.10486 39.104L6.88791 39.7006C6.99639 39.7006 7.10486 39.7549 7.21333 39.8091C7.3218 39.8633 7.43027 39.9176 7.53874 39.9718C7.3218 40.1345 7.10486 40.1888 6.83368 40.1888C6.50826 40.1888 6.18285 40.0803 5.96591 39.8091C5.69473 39.5379 5.58625 39.2125 5.58625 38.8329V35.7957H4.93542V38.8871C4.93542 39.4295 5.15237 39.9176 5.53202 40.2972C5.91167 40.6769 6.34556 40.8396 6.83368 40.8396C7.05062 40.8396 7.26757 40.7854 7.48451 40.7311C7.70145 40.6769 7.86416 40.5142 8.02687 40.4057C8.18958 40.5142 8.29805 40.6226 8.46075 40.6769C8.62346 40.7854 8.78617 40.8396 8.89464 40.8938L9.11158 40.2972C9.00311 40.243 8.84041 40.1888 8.73193 40.1345C8.62346 40.0261 8.51499 39.9718 8.40652 39.8633Z" fill="#C47C5A"/>
<path d="M12.9623 35.6872C12.4742 35.6872 12.0403 35.8499 11.6607 36.2295C11.281 36.6092 11.0641 37.0973 11.0641 37.6939V40.7311H11.7149V37.6939C11.7149 37.26 11.8234 36.8804 12.0946 36.6634C12.3115 36.4465 12.6369 36.338 12.9623 36.338C13.2878 36.338 13.5589 36.4465 13.8301 36.7176C14.1013 36.9888 14.2098 37.3142 14.2098 37.6939V40.8396H14.8606V37.7481C14.8606 37.2058 14.6979 36.7719 14.3182 36.3922C13.8844 35.9041 13.4505 35.6872 12.9623 35.6872Z" fill="#C47C5A"/>
<path d="M17.7893 35.7957H17.1384V40.7311H17.7893V37.7481H19.6333V37.1516H17.7893V35.7957Z" fill="#C47C5A"/>
<path d="M24.84 38.8871C24.84 39.321 24.7315 39.6464 24.4603 39.9176C24.2434 40.1345 23.9179 40.2972 23.5925 40.2972C23.2671 40.2972 22.9959 40.1888 22.7248 39.9176C22.4536 39.6464 22.3451 39.321 22.3451 38.8871V35.7957H20.8807V36.3922H21.7485V38.9413C21.7485 39.4837 21.9655 39.9176 22.3451 40.2972C22.7248 40.6769 23.1586 40.8396 23.5925 40.8396C24.0807 40.8396 24.5145 40.6769 24.8942 40.2972C25.2738 39.9176 25.4365 39.4837 25.4365 38.9413V38.3447H24.7857V38.8871H24.84Z" fill="#C47C5A"/>
<path d="M30.7517 39.1583C31.0771 38.6701 31.2398 38.1278 31.2398 37.5854C31.2398 37.0973 31.0229 36.6634 30.6432 36.2838C30.2636 35.9041 29.8297 35.6872 29.2873 35.6872C28.7992 35.6872 28.3111 35.9041 27.9314 36.2838C27.5518 36.6634 27.3348 37.0973 27.3348 37.6397C27.3348 37.8024 27.3348 38.0193 27.3891 38.182C27.4433 38.3447 27.4975 38.5074 27.606 38.6701C27.7145 38.6159 27.8772 38.6159 27.9857 38.6159C28.0941 38.6159 28.2568 38.5617 28.3653 38.5617C28.6907 38.5617 29.0162 38.6701 29.2331 38.8328C29.45 39.0498 29.6127 39.321 29.6127 39.6464C29.5043 39.8091 29.3416 39.9176 29.0704 40.026C28.7992 40.1345 28.528 40.243 28.2568 40.243C28.1484 40.243 28.0941 40.243 27.9857 40.1887V39.7006H27.3348V40.7311H31.1856V40.1345H29.667C30.1009 39.9718 30.4805 39.6464 30.7517 39.1583ZM29.5585 38.2905C29.2331 38.0735 28.9077 37.9651 28.4738 37.9651C28.4196 37.9651 28.3111 37.9651 28.1484 37.9651C28.0941 37.9651 28.0399 37.9651 27.9857 37.9651C27.9857 37.9108 27.9857 37.8566 27.9314 37.8024C27.9314 37.7481 27.9314 37.6939 27.9314 37.6939C27.9314 37.3142 28.0399 36.9888 28.3111 36.7176C28.5823 36.4465 28.8534 36.338 29.2331 36.338C29.6127 36.338 29.8839 36.5007 30.1551 36.7719C30.4263 37.0431 30.5348 37.3685 30.5348 37.6939C30.5348 37.9651 30.4805 38.2905 30.372 38.5074C30.2636 38.7786 30.1551 38.9955 29.9924 39.1583C30.0466 38.7786 29.8839 38.5074 29.5585 38.2905Z" fill="#C47C5A"/>
<path d="M170.789 26.8467H170.029V26.6298C170.029 26.1417 169.812 25.6536 169.378 25.2739C168.945 24.84 168.402 24.6773 167.751 24.6773C167.101 24.6773 166.504 24.8943 166.07 25.3281C165.636 25.7078 165.474 26.1959 165.474 26.7925V29.9382H166.124V26.901C166.124 26.4671 166.287 26.0874 166.558 25.762C166.884 25.4366 167.263 25.3281 167.697 25.3281C168.185 25.3281 168.565 25.4908 168.836 25.762C169.162 26.0332 169.27 26.4129 169.27 26.7925V26.901H168.402C167.968 26.901 167.643 27.0637 167.372 27.3349C167.101 27.606 166.938 27.9857 166.938 28.4738C166.938 28.9619 167.101 29.3958 167.48 29.667C167.751 29.8839 168.077 30.0467 168.456 30.0467C168.89 30.0467 169.216 29.8839 169.487 29.6128C169.758 29.3416 169.867 28.9619 169.867 28.5823V27.4976H170.626V26.8467H170.789ZM169.324 28.5281C169.324 28.7992 169.216 29.0162 169.053 29.1789C168.89 29.3416 168.728 29.3958 168.511 29.3958C168.24 29.3958 168.023 29.3416 167.86 29.1789C167.697 29.0162 167.589 28.7992 167.589 28.5281C167.589 28.2026 167.697 27.9315 167.86 27.7688C168.023 27.606 168.24 27.5518 168.456 27.5518H169.27V28.5281H169.324Z" fill="#C47C5A"/>
<path d="M175.616 28.0399C175.616 28.4196 175.507 28.745 175.236 29.0162C174.965 29.2874 174.694 29.3958 174.368 29.3958C173.989 29.3958 173.663 29.2874 173.446 29.0162C173.175 28.745 173.067 28.4196 173.067 28.0399V26.7925H176.538V26.1959H173.067V24.7858H172.416V27.9857C172.416 28.5823 172.633 29.0704 173.012 29.4501C173.392 29.8297 173.826 29.9924 174.368 29.9924C174.856 29.9924 175.29 29.8297 175.724 29.4501C176.104 29.0704 176.321 28.5823 176.321 27.9857V27.6603H175.67V28.0399H175.616Z" fill="#C47C5A"/>
<path d="M181.365 27.1179C181.582 27.0637 181.69 26.901 181.799 26.684C181.907 26.5213 181.961 26.3044 181.961 26.0332C181.961 25.6536 181.799 25.3281 181.527 25.057C181.202 24.7858 180.822 24.6231 180.388 24.6231C179.9 24.6231 179.521 24.7858 179.195 25.057C178.87 25.3281 178.707 25.7078 178.707 26.0874H179.358C179.358 25.8705 179.466 25.6536 179.629 25.4909C179.846 25.3281 180.063 25.2197 180.388 25.2197C180.714 25.2197 180.931 25.3281 181.148 25.4909C181.31 25.6536 181.365 25.8163 181.365 26.0332C181.365 26.2502 181.256 26.4671 181.093 26.5756C180.931 26.7383 180.66 26.7925 180.334 26.7925H178.273V27.3891H180.334C180.768 27.3891 181.148 27.4976 181.365 27.6603C181.527 27.823 181.636 28.0399 181.636 28.3111C181.636 28.5823 181.527 28.7992 181.256 29.0162C180.985 29.2331 180.66 29.2874 180.28 29.2874C179.9 29.2874 179.575 29.1789 179.304 28.9619C179.087 28.745 178.924 28.5281 178.924 28.2569H178.273C178.273 28.745 178.436 29.1247 178.816 29.4501C179.195 29.7755 179.629 29.9382 180.226 29.9382C180.822 29.9382 181.31 29.7755 181.69 29.4501C182.07 29.1247 182.232 28.745 182.232 28.3111C182.232 28.0399 182.178 27.823 182.015 27.5518C181.853 27.3891 181.636 27.1722 181.365 27.1179Z" fill="#C47C5A"/>
<path d="M187.276 29.2874H184.836V24.7858H184.185V29.884H187.276V29.2874Z" fill="#C47C5A"/>
<path d="M190.856 24.6773C190.314 24.6773 189.88 24.84 189.5 25.2197C189.12 25.5993 188.903 26.1417 188.903 26.7383V29.8839H189.554V26.684C189.554 26.2501 189.717 25.8705 189.988 25.5993C190.205 25.3824 190.531 25.2197 190.856 25.2197C191.181 25.2197 191.507 25.3281 191.724 25.5993C191.995 25.8705 192.103 26.1959 192.103 26.5756V29.8297H192.754V26.5756C192.754 26.0332 192.537 25.5451 192.158 25.1654C191.832 24.8943 191.344 24.6773 190.856 24.6773Z" fill="#C47C5A"/>
<path d="M196.713 24.6773C196.171 24.6773 195.737 24.8942 195.357 25.2739C194.978 25.6536 194.815 26.1959 194.815 26.7925V29.9382H195.466V26.7925C195.466 26.3586 195.574 26.0332 195.846 25.762C196.062 25.4908 196.388 25.3281 196.768 25.3281C197.147 25.3281 197.473 25.4908 197.744 25.762C197.961 26.0332 198.069 26.3586 198.069 26.684V27.1722H198.72V26.7383C198.72 26.1417 198.557 25.6536 198.178 25.2739C197.69 24.8942 197.256 24.6773 196.713 24.6773Z" fill="#C47C5A"/>
<path d="M202.3 26.0874C202.083 26.0874 201.866 26.1417 201.595 26.2501C201.323 26.3586 201.106 26.5213 200.998 26.7383V24.84H200.347V29.9924H200.998V28.2026C200.998 27.7687 201.106 27.4433 201.378 27.1721C201.595 26.901 201.92 26.7383 202.3 26.7383C202.679 26.7383 203.005 26.901 203.276 27.1721C203.493 27.4433 203.601 27.7687 203.601 28.0941V28.5823H204.252V28.1484C204.252 27.5518 204.089 27.0637 203.71 26.684C203.33 26.2501 202.896 26.0874 202.3 26.0874Z" fill="#C47C5A"/>
<path d="M209.35 27.9857C209.35 28.4196 209.242 28.7992 208.971 29.0704C208.754 29.3416 208.428 29.45 208.049 29.45C207.723 29.45 207.398 29.3416 207.181 29.0704C206.91 28.7992 206.801 28.4196 206.801 28.0399V24.84H205.283V25.4366H206.15V28.0941C206.15 28.6365 206.367 29.1246 206.801 29.5043C207.181 29.8839 207.615 30.0466 208.103 30.0466C208.645 30.0466 209.079 29.8839 209.459 29.5043C209.839 29.1246 210.055 28.6365 210.055 28.0941V27.4433H209.35V27.9857Z" fill="#C47C5A"/>
<path d="M215.316 28.0399V26.5756C215.316 26.1417 215.154 25.7078 214.774 25.3281C214.394 24.8943 213.906 24.6773 213.364 24.6773C212.821 24.6773 212.388 24.8942 212.008 25.2739C211.628 25.6536 211.466 26.1417 211.466 26.6298C211.466 27.2264 211.628 27.7687 212.008 28.0942C212.333 28.4738 212.821 28.6365 213.418 28.6365H214.72V29.8839H215.371V28.6365H216.184V28.0399H215.316ZM214.665 28.0399H213.418C212.984 28.0399 212.659 27.9315 212.442 27.6603C212.225 27.3891 212.062 27.0637 212.062 26.6298C212.062 26.2501 212.171 25.8705 212.442 25.6536C212.713 25.3824 212.984 25.2739 213.31 25.2739C213.689 25.2739 214.015 25.4366 214.286 25.7078C214.503 25.979 214.611 26.3044 214.611 26.6298V28.0399H214.665Z" fill="#C47C5A"/>
<path d="M167.643 37.9109C167.806 37.8566 167.968 37.6939 168.131 37.5312C168.24 37.3685 168.294 37.1515 168.294 36.9346C168.294 36.5007 168.131 36.1753 167.86 35.9041C167.589 35.6872 167.209 35.5245 166.829 35.5245H165.311V36.1211H166.775C166.992 36.1211 167.209 36.1753 167.372 36.338C167.534 36.5007 167.589 36.6634 167.589 36.8804C167.589 37.1516 167.48 37.3143 167.318 37.4227C167.155 37.5312 166.938 37.5854 166.667 37.5854H165.311V38.182H166.721C167.046 38.182 167.318 38.2905 167.534 38.5617C167.751 38.7786 167.86 39.0498 167.86 39.3752V40.6769H168.511V39.321C168.511 38.9956 168.402 38.6702 168.24 38.399C168.077 38.1278 167.86 37.9651 167.643 37.9109Z" fill="#C47C5A"/>
<path d="M174.097 39.8091C174.206 39.6464 174.26 39.4837 174.314 39.321C174.368 39.1583 174.368 38.9956 174.368 38.7787V35.5787H173.717V38.8329C173.717 39.0498 173.663 39.2668 173.555 39.4837C173.392 39.3752 173.229 39.2668 173.121 39.2125C172.958 39.1041 172.795 39.0498 172.633 39.0498L172.416 39.6464C172.524 39.6464 172.633 39.7007 172.795 39.7549C172.904 39.8091 173.012 39.8634 173.121 39.9718C172.904 40.1345 172.633 40.243 172.362 40.243C171.982 40.243 171.711 40.1345 171.44 39.8634C171.168 39.5922 171.06 39.2668 171.06 38.8871V35.633H170.409V38.8329C170.409 39.4295 170.626 39.9176 171.006 40.2973C171.385 40.6769 171.819 40.8396 172.362 40.8396C172.578 40.8396 172.795 40.7854 173.012 40.7311C173.229 40.6227 173.446 40.5142 173.609 40.3515C173.772 40.46 173.88 40.5684 174.043 40.6227C174.206 40.7311 174.368 40.7854 174.531 40.8396L174.748 40.243C174.639 40.1888 174.477 40.1345 174.368 40.0803C174.368 39.9718 174.206 39.8634 174.097 39.8091Z" fill="#C47C5A"/>
<path d="M178.436 35.4702C177.894 35.4702 177.46 35.633 177.08 36.0126C176.7 36.3923 176.483 36.9346 176.483 37.5312V40.6769H177.134V37.477C177.134 37.0431 177.297 36.6634 177.568 36.3923C177.785 36.1753 178.11 36.0126 178.436 36.0126C178.761 36.0126 179.087 36.1211 179.304 36.3923C179.575 36.6634 179.683 36.9888 179.683 37.3685V40.6227H180.334V37.3685C180.334 36.8261 180.117 36.338 179.738 35.9584C179.412 35.633 178.978 35.4702 178.436 35.4702Z" fill="#C47C5A"/>
<path d="M183.046 35.5245H182.395V40.6769H183.046V37.5854H184.998V36.9346H183.046V35.5245Z" fill="#C47C5A"/>
<path d="M189.88 38.7786C189.88 39.1583 189.771 39.4837 189.5 39.7549C189.229 40.0261 188.958 40.1345 188.632 40.1345C188.307 40.1345 187.982 40.0261 187.765 39.7549C187.493 39.4837 187.385 39.1041 187.385 38.6702V35.4703H186.734V38.6159C186.734 39.2125 186.951 39.7549 187.331 40.1345C187.71 40.5142 188.144 40.6769 188.687 40.6769C189.229 40.6769 189.663 40.4599 190.097 40.0261C190.422 39.7006 190.639 39.2668 190.639 38.6702V35.416H189.988V38.7786H189.88Z" fill="#C47C5A"/>
<path d="M112.431 39.6464C111.889 39.6464 111.509 39.4295 111.346 39.1041C111.183 38.7244 111.129 38.1278 111.129 37.26V26.7383C111.129 26.3044 111.129 25.9248 111.183 25.5993C111.238 25.2739 111.292 25.057 111.346 24.8943C111.455 24.7316 111.563 24.5689 111.726 24.5146C111.888 24.4604 112.105 24.4062 112.377 24.3519V23.918H105.814V24.3519C106.356 24.3519 106.736 24.5146 106.845 24.8943C107.007 25.2197 107.062 25.8163 107.062 26.7383V37.6397C107.062 38.5617 107.007 39.2125 106.845 39.4837C106.682 39.8091 106.356 40.0261 105.814 40.0261V40.46H112.919C114.112 40.46 114.98 40.6769 115.522 41.1108C116.065 41.5989 116.444 41.9786 116.553 42.2497L120.512 40.6227C119.753 39.9718 118.343 39.6464 116.282 39.6464H112.431ZM108.255 39.538H107.929V25.1655H108.255V39.538Z" fill="#C47C5A"/>
<path d="M59.4426 30.2094V30.0467C59.4426 28.5281 59.0087 27.2806 58.1409 26.3586C57.2731 25.3824 56.1884 24.6773 54.941 24.2434C53.6936 23.8095 52.4461 23.5926 51.1445 23.5926C50.2225 23.5926 49.3005 23.7011 48.3242 23.9722C47.348 24.1892 46.426 24.5688 45.6124 25.1112C45.1785 25.3824 44.7989 25.7078 44.4735 26.0332C44.1481 26.3586 43.8226 26.7383 43.5515 27.1722C43.0091 27.9857 42.7922 29.0162 42.7922 30.1551V37.9651C42.7922 38.7786 42.6837 39.3752 42.4668 39.6464C42.304 39.9718 41.8702 40.0803 41.2736 40.0803V40.5142H48.3242V40.0803C47.9988 40.0803 47.7276 40.026 47.5649 39.9718C47.348 39.9176 47.1853 39.8091 47.0768 39.5922C46.9683 39.4295 46.8599 39.2125 46.8599 38.9413C46.8056 38.6702 46.8056 38.3447 46.8056 37.9109V29.6128C46.8056 28.2569 47.0768 27.0637 47.6734 25.979C48.27 24.8943 49.4089 24.3519 51.1445 24.3519C52.3377 24.3519 53.2597 24.6231 53.9105 25.1112C54.5613 25.5993 54.9952 26.2501 55.2122 27.0094C55.4291 27.823 55.5376 28.6908 55.5376 29.6128V30.1009H53.8563C52.175 30.1009 50.8733 30.4263 49.9513 31.1314C49.0293 31.8364 48.5954 32.7042 48.5954 33.8432V33.9516C48.5954 34.9279 48.8666 35.6872 49.4632 36.338C50.0055 36.9346 50.7106 37.3685 51.5241 37.6397C52.2834 37.9109 53.097 38.0193 54.019 38.0193C54.6698 38.0193 55.3206 37.9109 55.9172 37.6939C56.5138 37.477 57.1104 37.1515 57.6528 36.6634C58.1951 36.2295 58.629 35.6329 58.9544 34.8736C59.2799 34.1143 59.4426 33.3008 59.4426 32.3788V31.0229C60.0934 31.0229 60.69 31.1856 61.1781 31.511C61.612 31.8364 61.9917 32.1619 62.1544 32.433C62.3171 32.7584 62.4798 32.9754 62.534 33.1381L65.6797 31.1856C64.9204 30.5348 63.5103 30.2094 61.4493 30.2094H59.4426ZM44.2023 39.5379H43.9311V28.8535H44.2565V39.5379H44.2023ZM55.4291 35.5245C55.4291 36.0668 55.2664 36.4465 54.9952 36.7719C54.7241 37.0973 54.3444 37.2058 53.9105 37.2058C53.4766 37.1515 53.097 36.9888 52.88 36.7177C52.6631 36.3922 52.5004 36.0126 52.5004 35.5245V32.8127C52.5004 32.3246 52.6089 31.8907 52.88 31.511C53.1512 31.1314 53.5851 30.9687 54.1275 30.9687H55.4291V35.5245ZM56.6223 35.6329H56.2969V30.9144H56.6223V35.6329Z" fill="#C47C5A"/>
<path d="M75.1166 29.5043C76.4725 29.5043 77.4487 29.7755 78.0453 30.2094C78.6419 30.6975 79.0216 31.1856 79.1843 31.6195L83.1435 29.9924C82.7096 29.6128 82.113 29.2874 81.408 29.0162C80.7029 28.7992 79.8894 28.6365 78.9131 28.6365H72.8387V26.4671C72.8387 26.0332 72.8387 25.7078 72.8929 25.4366C72.9472 25.1654 73.0014 24.9485 73.1099 24.7858C73.2184 24.6231 73.3811 24.5146 73.598 24.4061C73.8149 24.3519 74.0861 24.2977 74.3573 24.2977V23.8638H67.3066V24.2977C67.9032 24.2977 68.2829 24.4604 68.4998 24.7315C68.7168 25.057 68.8252 25.5993 68.8252 26.4129V34.8736C68.8252 36.7719 69.4218 38.2363 70.5608 39.2668C71.6997 40.243 73.2183 40.7311 75.0624 40.7311C75.9844 40.7311 76.7979 40.6226 77.5572 40.4057C78.3165 40.1888 78.9674 39.8633 79.5097 39.4295C80.0521 38.9956 80.486 38.4532 80.8114 37.8024C81.1368 37.1516 81.2453 36.3923 81.2453 35.5245V35.416C81.2453 34.6025 81.3537 34.0059 81.5707 33.7347C81.7876 33.4093 82.1673 33.3008 82.7639 33.3008V32.8669H75.7132V33.3008C76.364 33.3008 76.7437 33.4635 76.9606 33.7347C77.1776 34.0601 77.286 34.6025 77.286 35.416V37.9651C77.286 38.6702 77.0691 39.1583 76.6352 39.4837C76.2013 39.8091 75.659 40.0261 75.0081 40.0261C74.3031 40.0261 73.8149 39.8633 73.3811 39.4837C72.9472 39.104 72.7302 38.6159 72.7302 37.9651V29.5043H75.1166ZM70.1269 36.5007H69.8015V25.1654H70.1269V36.5007ZM78.208 33.9516H78.5335V36.5007H78.208V33.9516Z" fill="#C47C5A"/>
<path d="M137.434 39.5922C137.217 39.2668 137.108 38.7244 137.108 37.9109V29.4501C137.108 28.4738 136.946 27.606 136.674 26.8467C136.349 26.0874 135.915 25.4908 135.373 25.0027C134.83 24.5146 134.18 24.135 133.42 23.918C132.661 23.7011 131.847 23.5384 130.925 23.5384C130.003 23.5384 129.19 23.6468 128.431 23.918C127.671 24.135 127.02 24.5146 126.478 25.0027C125.936 25.4908 125.502 26.0874 125.176 26.8467C124.851 27.606 124.688 28.4738 124.688 29.4501V37.9109C124.688 38.7244 124.58 39.321 124.363 39.5922C124.2 39.9176 123.766 40.0261 123.17 40.0261V40.4599H130.22V40.0261C129.895 40.0261 129.624 39.9718 129.461 39.9176C129.244 39.8633 129.081 39.7549 128.973 39.5379C128.864 39.3752 128.756 39.1583 128.756 38.8871C128.702 38.6159 128.702 38.2905 128.702 37.8566V26.4671C128.702 25.8163 128.919 25.3281 129.353 24.9485C129.786 24.5688 130.329 24.4061 130.98 24.4061C131.63 24.4061 132.173 24.5688 132.607 24.9485C133.041 25.3281 133.258 25.8163 133.258 26.4671V37.9109C133.258 38.7244 133.149 39.321 132.932 39.5922C132.715 39.9176 132.336 40.0261 131.685 40.0261V40.4599H138.735V40.0261C138.085 40.0803 137.651 39.9176 137.434 39.5922ZM126.044 39.5379H125.719V28.8535H126.044V39.5379ZM134.613 39.5379H134.288V28.8535H134.613V39.5379Z" fill="#C47C5A"/>
<path d="M156.47 31.5653C156.308 31.2398 156.199 30.6975 156.199 29.884V29.4501C156.199 28.4738 156.037 27.606 155.765 26.8467C155.44 26.0874 155.006 25.4908 154.464 25.0027C153.921 24.5146 153.271 24.135 152.511 23.918C151.752 23.7011 150.938 23.5384 150.016 23.5384C149.094 23.5384 148.281 23.6468 147.522 23.918C146.762 24.135 146.111 24.5146 145.569 25.0027C145.027 25.4908 144.593 26.0874 144.267 26.8467C143.942 27.606 143.779 28.4738 143.779 29.4501V37.9109C143.779 38.7244 143.671 39.321 143.454 39.5922C143.291 39.9176 142.857 40.0261 142.261 40.0261V40.4599H149.311V40.0261C148.986 40.0261 148.715 39.9718 148.552 39.9176C148.335 39.8633 148.172 39.7549 148.064 39.5379C147.955 39.3752 147.847 39.1583 147.847 38.8871C147.793 38.6159 147.793 38.2905 147.793 37.8566V26.4671C147.793 25.8163 148.01 25.3281 148.444 24.9485C148.877 24.5688 149.42 24.4061 150.071 24.4061C150.721 24.4061 151.264 24.5688 151.698 24.9485C152.132 25.3281 152.348 25.8163 152.348 26.4671V29.884C152.348 30.3178 152.348 30.6433 152.294 30.9144C152.24 31.1856 152.186 31.4026 152.077 31.5653C151.969 31.728 151.806 31.8364 151.589 31.9449C151.372 31.9992 151.101 32.0534 150.83 32.0534V32.4873H157.881V31.9992C157.067 31.9992 156.633 31.8907 156.47 31.5653ZM144.918 39.5379H144.593V28.8535H144.918V39.5379ZM153.325 31.2941H152.999V28.9077H153.325V31.2941Z" fill="#C47C5A"/>
<path d="M97.6789 31.1314C98.1127 31.0772 98.6009 30.9687 98.9805 30.806C99.4144 30.589 99.7941 30.3721 100.119 30.0467C100.445 29.7213 100.716 29.3958 100.879 28.962C101.041 28.5823 101.15 28.1484 101.15 27.7145C101.15 26.7383 100.825 25.9247 100.174 25.2739C99.8483 24.9485 99.4686 24.6773 99.089 24.4604C98.6551 24.2434 98.2212 24.0265 97.7873 23.8638C96.8111 23.5926 95.8891 23.4299 94.9671 23.4299H94.6416C94.5332 23.4299 94.4247 23.4299 94.3705 23.4299C93.7196 23.4841 93.0688 23.5926 92.4722 23.7553C91.8756 23.918 91.3333 24.135 90.8451 24.4604C89.8689 25.0027 89.1096 25.5993 88.6215 26.3044C88.1333 27.0095 87.8622 27.5518 87.8622 27.9857H91.7671C91.7671 27.0637 91.9841 26.1959 92.3637 25.4366C92.7976 24.6773 93.5569 24.2977 94.6416 24.2977C95.4009 24.2977 96.0518 24.5689 96.6484 25.1112C97.1907 25.6536 97.5161 26.5213 97.5161 27.7145C97.5161 28.7992 97.245 29.5586 96.7568 30.0467C96.2687 30.5348 95.4009 30.7517 94.262 30.7517H91.5502L91.6587 29.8297H87.4283L86.9944 33.1924H91.2248L91.4417 31.6195H94.262C95.0755 31.6195 95.7264 31.728 96.2145 31.9449C96.7026 32.1619 97.0823 32.4873 97.3534 32.8669C97.6246 33.2466 97.8416 33.7347 97.8958 34.2228C98.0043 34.7652 98.0585 35.3076 98.0585 35.9584V36.5007C98.0585 37.0431 97.95 37.477 97.7331 37.9109C97.5704 38.3448 97.2992 38.6702 96.9738 38.9956C96.6484 39.321 96.323 39.5379 95.8891 39.7007C95.4552 39.8634 95.0213 39.9176 94.5874 39.9176C92.4722 39.9176 91.3875 38.399 91.3875 35.3076H87.0486C87.0486 36.1211 87.2113 36.8804 87.591 37.6397C88.0249 38.399 88.5672 38.9956 89.3265 39.4837C89.6519 39.7007 89.9774 39.8634 90.4112 40.0261C90.7909 40.1888 91.279 40.2972 91.7671 40.4057C92.7434 40.6769 93.7196 40.7854 94.6959 40.7854C95.6179 40.7854 96.6484 40.6227 97.7331 40.2973C98.872 39.9176 99.794 39.3752 100.608 38.6702C101.421 37.9651 101.855 36.9889 101.963 35.8499C101.963 34.6025 101.584 33.572 100.825 32.7042C100.119 31.8907 99.0347 31.3483 97.6789 31.1314ZM98.5466 25.1112L98.7636 24.8943C98.8178 24.9485 100.553 25.762 100.553 27.5518C100.553 29.3416 98.872 30.1551 98.7636 30.2094L98.5466 29.9924C98.5466 29.9924 100.174 29.1789 100.174 27.5518C100.174 25.9247 98.5466 25.1112 98.5466 25.1112ZM87.9164 32.7585H87.591L87.9164 30.2094H88.2418L87.9164 32.7585ZM101.367 35.633C101.367 37.6939 99.6856 38.6702 99.5771 38.7244L99.3602 38.5075C99.3602 38.5075 100.987 37.5855 100.987 35.633C100.987 33.6805 99.3602 32.8127 99.3602 32.7585L99.5771 32.5415C99.6313 32.5958 101.367 33.572 101.367 35.633Z" fill="#C47C5A"/>
<path d="M63.9441 17.6266C64.4864 18.1148 64.8661 18.4944 64.9745 18.7656L68.9338 17.1385C68.1202 16.4877 66.7101 16.1623 64.7034 16.1623H61.1238C60.7984 16.1623 60.5272 16.108 60.3645 16.0538C60.1475 15.9996 59.9848 15.8911 59.8764 15.6742C59.7679 15.5114 59.6594 15.2945 59.6594 15.0233C59.6052 14.7521 59.6052 14.4267 59.6052 13.9928V2.92873C59.6052 2.2779 59.8221 1.78978 60.256 1.41013C60.6899 1.03047 61.2323 0.867767 61.8831 0.867767C62.5339 0.867767 63.0763 1.03047 63.5102 1.41013C63.9441 1.78978 64.161 2.2779 64.161 2.92873V6.34559C64.161 6.77947 64.161 7.10489 64.1068 7.37607C64.0525 7.64725 63.9983 7.86419 63.8898 8.0269C63.7814 8.18961 63.6186 8.29808 63.4017 8.40655C63.1848 8.46079 62.9136 8.51502 62.6424 8.51502V8.94891H69.6931V8.51502C69.0422 8.51502 68.6626 8.35231 68.4456 8.08113C68.2829 7.75572 68.1745 7.21336 68.1745 6.39982V5.96594C68.1745 4.98969 68.0117 4.12192 67.7406 3.36262C67.4152 2.60331 66.9813 2.00672 66.4389 1.5186C65.8965 1.03048 65.2457 0.650824 64.4864 0.433881C63.7271 0.216937 62.9136 0.0542297 61.9916 0.0542297C61.0696 0.0542297 60.256 0.162701 59.4967 0.433881C58.7374 0.650824 58.0866 1.03048 57.5442 1.5186C57.0019 2.00672 56.568 2.60331 56.2426 3.36262C55.9171 4.12192 55.7544 4.98969 55.7544 5.96594V14.4267C55.7544 15.2403 55.646 15.8369 55.429 16.108C55.2663 16.4335 54.8324 16.5419 54.2358 16.5419V16.9758H61.4492C62.5339 16.9758 63.4017 17.1928 63.9441 17.6266ZM65.0288 5.36934H65.3542V7.75572H65.0288V5.36934ZM56.8934 15.9996H56.568V5.36934H56.8934V15.9996Z" fill="#C47C5A"/>
<path d="M137.379 17.6267C137.922 18.1148 138.301 18.4944 138.41 18.7656L142.369 17.1385C141.61 16.4877 140.2 16.1623 138.139 16.1623H134.234C133.691 16.1623 133.312 15.9996 133.149 15.6199C132.986 15.2403 132.932 14.6437 132.932 13.7759V3.25416C132.932 2.82028 132.932 2.44063 132.986 2.11521C133.041 1.7898 133.095 1.57285 133.149 1.41014C133.257 1.24744 133.366 1.08473 133.529 1.03049C133.691 0.976257 133.908 0.922022 134.179 0.867786V0.433899H127.617V0.867786C128.159 0.867786 128.539 1.03049 128.647 1.41014C128.81 1.73556 128.864 2.33215 128.864 3.25416V14.1556C128.864 15.0776 128.81 15.7284 128.647 15.9996C128.485 16.325 128.159 16.5419 127.617 16.5419V16.9758H134.722C135.969 16.9758 136.837 17.1928 137.379 17.6267ZM130.112 15.9996H129.786V1.62709H130.112V15.9996Z" fill="#C47C5A"/>
<path d="M79.6725 16.5419C79.3471 16.5419 79.0759 16.4877 78.9132 16.4335C78.6963 16.3792 78.5336 16.2707 78.4251 16.0538C78.3166 15.8911 78.2081 15.6742 78.2081 15.403C78.1539 15.1318 78.1539 14.8064 78.1539 14.3725V2.92873C78.1539 2.2779 78.3708 1.78978 78.8047 1.41013C79.2386 1.03047 79.781 0.867767 80.4318 0.867767C81.0826 0.867767 81.625 1.03047 82.0589 1.41013C82.4928 1.78978 82.7097 2.2779 82.7097 2.92873V6.34559C82.7097 6.77947 82.7097 7.10489 82.6555 7.37607C82.6012 7.64725 82.547 7.86419 82.4385 8.0269C82.3301 8.18961 82.1674 8.29808 81.9504 8.40655C81.7335 8.46079 81.4623 8.51502 81.1911 8.51502V8.94891H88.2418V8.51502C87.5909 8.51502 87.2113 8.35231 86.9943 8.08113C86.8316 7.75572 86.7232 7.21336 86.7232 6.39982V5.96594C86.7232 4.98969 86.5605 4.12192 86.2893 3.36262C85.9639 2.60331 85.53 2.00672 84.9876 1.5186C84.4453 1.03048 83.7944 0.650824 83.0351 0.433881C82.2758 0.216937 81.4623 0.0542297 80.5403 0.0542297C79.6183 0.0542297 78.8047 0.162701 78.0454 0.433881C77.2861 0.650824 76.6353 1.03048 76.0929 1.5186C75.5506 2.00672 75.1167 2.60331 74.7913 3.36262C74.4659 4.12192 74.3032 4.98969 74.3032 5.96594V14.4267C74.3032 15.2403 74.1947 15.8369 73.9777 16.108C73.815 16.4335 73.3811 16.5419 72.7845 16.5419V16.9758H79.8352V16.5419H79.6725ZM83.469 5.36934H83.7944V7.75572H83.469V5.36934ZM75.3336 15.9996H75.0082V5.36934H75.3336V15.9996Z" fill="#C47C5A"/>
<path d="M115.956 16.5419C115.631 16.5419 115.36 16.4877 115.197 16.4335C114.98 16.3792 114.817 16.2708 114.709 16.0538C114.6 15.8911 114.492 15.6742 114.492 15.403C114.438 15.1318 114.438 14.8064 114.438 14.3725V7.75574C114.438 7.10491 114.655 6.61679 115.089 6.23713C115.468 5.91172 116.011 5.69478 116.716 5.69478C117.366 5.69478 117.909 5.85748 118.343 6.23713C118.777 6.56255 118.994 7.10491 118.994 7.75574V9.65399C118.994 10.4675 118.885 11.0641 118.668 11.3353C118.451 11.6607 118.072 11.7692 117.421 11.7692V12.2031H124.471V11.7692C123.875 11.7692 123.495 11.6065 123.278 11.3353C123.061 11.0099 122.953 10.4675 122.953 9.65399V9.54552C122.953 7.75574 122.302 6.56255 120.946 5.85748C119.536 5.20665 118.126 4.88124 116.607 4.88124C115.848 4.88124 115.089 4.98971 114.383 5.15242V2.98298C114.383 2.5491 114.383 2.22368 114.438 1.9525C114.492 1.68132 114.546 1.46438 114.655 1.30167C114.763 1.13897 114.926 1.03049 115.143 0.922022C115.36 0.867786 115.631 0.81355 115.902 0.81355V0.433899H108.851V0.867786C109.448 0.867786 109.828 1.03049 110.045 1.30167C110.262 1.62709 110.37 2.16945 110.37 2.98298V14.3725C110.37 15.186 110.262 15.7826 110.045 16.0538C109.882 16.3792 109.448 16.4877 108.851 16.4877V16.9216H115.902V16.5419H115.956ZM119.753 7.64727H120.078V11.2268H119.753V7.64727ZM111.672 15.9996H111.346V1.62709H111.672V15.9996Z" fill="#C47C5A"/>
<path d="M159.616 14.264C158.694 13.7759 157.555 13.5047 156.091 13.5047H152.945C153.596 13.342 154.355 13.1251 155.114 12.7997C155.928 12.4742 156.687 11.9861 157.447 11.3895C158.206 10.7929 158.802 10.0336 159.291 9.16586C159.779 8.24385 160.05 7.21337 160.05 6.02018C160.05 5.26088 159.887 4.50157 159.562 3.79651C159.236 3.09144 158.748 2.44061 158.152 1.84402C157.555 1.30166 156.796 0.813538 155.928 0.488123C155.06 0.162708 154.084 0 152.999 0C151.915 0 150.884 0.216943 149.962 0.705066C148.986 1.19319 148.226 1.84402 147.738 2.65756C147.196 3.47109 146.925 4.44734 146.925 5.47782C146.925 6.29136 147.088 7.15913 147.467 8.08114L152.403 6.02018L152.24 5.64053C151.915 5.749 151.698 5.80324 151.535 5.80324C150.884 5.80324 150.396 5.20664 150.125 4.01345C150.071 3.85075 150.071 3.68804 150.071 3.47109C150.071 2.76603 150.287 2.1152 150.721 1.62708C150.938 1.3559 151.209 1.13895 151.535 0.976245C151.806 0.813538 152.186 0.759302 152.565 0.759302C153.162 0.759302 153.704 0.867773 154.138 1.13895C154.626 1.41013 155.006 1.78978 155.331 2.22367C155.657 2.65756 155.928 3.19991 156.091 3.79651C156.253 4.3931 156.362 4.9897 156.362 5.58629C156.362 5.69476 156.362 5.80324 156.362 5.85747C156.362 5.96594 156.362 6.02018 156.362 6.07441C156.308 6.77948 156.199 7.43031 155.982 8.02691C155.82 8.6235 155.548 9.22009 155.277 9.76245C154.626 10.8472 153.867 11.7149 152.999 12.3658C152.077 13.0166 151.209 13.2878 150.287 13.2878H148.769C148.552 12.42 148.335 11.7149 148.064 11.0641C147.793 10.5218 147.467 9.9794 147.088 9.32857L144.538 13.2335C144.918 13.3963 145.352 13.7217 145.84 14.1556C146.111 14.3725 146.328 14.6437 146.545 14.8606C146.762 15.1318 146.925 15.403 147.142 15.6742C147.521 16.2165 147.738 16.7589 147.793 17.1928H148.552C148.606 17.1385 148.715 16.5962 148.715 15.6742C148.769 14.7521 148.769 14.264 148.769 14.264H153.053C154.03 14.264 154.843 14.4267 155.494 14.6979C156.145 14.9691 156.633 15.3487 156.958 15.7284C157.284 16.1623 157.501 16.4877 157.609 16.8131C157.718 17.1385 157.772 17.3555 157.772 17.4639L162.002 15.9996C161.297 15.3487 160.592 14.7521 159.616 14.264ZM157.338 2.65756L157.555 2.38638C157.609 2.44061 159.345 3.68804 159.345 6.34559C159.345 9.05739 157.664 10.2506 157.555 10.3048L157.338 10.0336C157.338 10.0336 158.965 8.84044 158.965 6.34559C158.965 3.79651 157.338 2.65756 157.338 2.65756Z" fill="#C47C5A"/>
<path d="M103.645 1.84401C103.048 1.30165 102.343 0.867767 101.475 0.542352C100.608 0.216937 99.6856 0.0542297 98.6009 0.0542297C97.6789 0.0542297 96.8653 0.216937 96.0518 0.488116C95.2382 0.759296 94.5332 1.19318 93.8823 1.73554C93.2315 2.2779 92.7434 2.87449 92.418 3.57956C92.0383 4.28463 91.8756 5.04393 91.8756 5.85747H96.106C96.106 5.26087 96.106 4.66428 96.1602 4.12192C96.2145 3.57956 96.3229 3.0372 96.4857 2.54908C96.6484 2.06096 96.9195 1.68131 97.2992 1.35589C97.6788 1.03048 98.1127 0.922003 98.6551 0.922003C99.794 0.922003 100.608 1.35589 101.041 2.2779C101.475 3.19991 101.638 4.23039 101.638 5.36934V5.74899C101.638 5.85747 101.638 5.96594 101.638 6.02017C101.475 9.16585 100.119 11.0641 97.5704 11.6065L95.8348 11.2268C95.0213 11.0641 94.4789 10.8472 94.0993 10.576C93.7739 10.359 93.6112 10.0336 93.6112 9.70821H93.2315V14.3183L101.692 15.9996C102.506 16.1623 103.102 16.3792 103.374 16.5419C103.699 16.7589 103.807 17.03 103.807 17.3555H104.187V12.9081L99.2517 11.9861C100.119 11.9861 100.933 11.7692 101.692 11.4438C102.452 11.1183 103.157 10.6845 103.699 10.0879C104.296 9.5455 104.73 8.89467 105.055 8.18961C105.38 7.48454 105.543 6.72524 105.543 5.96594C105.543 5.1524 105.435 4.3931 105.109 3.68803C104.73 2.98297 104.241 2.38637 103.645 1.84401ZM102.994 15.6199V15.9453L93.8281 13.9386V13.6132L102.994 15.6199ZM104.784 6.02017C104.784 8.51502 103.102 9.65397 102.994 9.70821L102.777 9.43703C102.777 9.43703 104.404 8.35231 104.404 6.02017C104.404 3.68803 102.777 2.60331 102.777 2.60331L102.994 2.33214C103.102 2.38637 104.784 3.52532 104.784 6.02017Z" fill="#C47C5A"/>
<path d="M46.8055 6.07441C46.6428 9.22009 45.2869 11.1183 42.7378 11.6607L41.0023 11.281C40.1345 11.0641 39.5921 10.8472 39.2125 10.6302C38.8871 10.4133 38.7244 10.0879 38.7244 9.76245H38.3447V14.3725L46.8055 16.0538C47.619 16.2165 48.2156 16.4335 48.4868 16.5962C48.8122 16.8131 48.9207 17.0843 48.9207 17.4097H49.3004V12.9624L44.3649 12.0404C45.2327 12.0404 46.0462 11.8234 46.8055 11.498C47.5648 11.1726 48.2699 10.7387 48.8122 10.1421C49.4088 9.59974 49.8427 8.94891 50.1681 8.24384C50.4935 7.53878 50.6563 6.77947 50.6563 6.02017C50.6563 5.20663 50.5478 4.44733 50.2224 3.74227C49.8969 3.0372 49.4631 2.38637 48.8665 1.84401C48.2699 1.30165 47.5648 0.867767 46.697 0.542352C45.8293 0.216937 44.9073 0.0542297 43.8225 0.0542297C42.9005 0.0542297 42.087 0.216937 41.2734 0.488116C40.4599 0.759296 39.7548 1.19318 39.104 1.73554C38.4532 2.2779 37.9651 2.87449 37.6396 3.57956C37.26 4.28463 37.0973 5.04393 37.0973 5.85747H41.3277C41.3277 5.26087 41.3277 4.66428 41.3819 4.12192C41.4362 3.57956 41.5446 3.0372 41.7073 2.54908C41.87 2.06096 42.1412 1.68131 42.5209 1.35589C42.8463 1.08471 43.2802 0.922003 43.8225 0.922003C44.9615 0.922003 45.775 1.35589 46.2089 2.2779C46.6428 3.19991 46.8055 4.23039 46.8055 5.36934V5.74899C46.8055 5.9117 46.8055 5.96594 46.8055 6.07441ZM48.2156 15.6199V15.9453L39.0498 13.9386V13.6132L48.2156 15.6199ZM48.0529 2.60331L48.2699 2.33214C48.3241 2.38637 50.0597 3.52532 50.0597 6.02017C50.0597 8.51502 48.3783 9.65397 48.2699 9.70821L48.0529 9.43703C48.0529 9.43703 49.68 8.35231 49.68 6.02017C49.68 3.68803 48.0529 2.60331 48.0529 2.60331Z" fill="#C47C5A"/>
</svg>
