<svg xmlns="http://www.w3.org/2000/svg" version="1.1" xmlnsxlink="http://www.w3.org/1999/xlink" xmlnssvgjs="http://svgjs.dev/svgjs" width="1500" height="82" viewBox="0 0 1500 382"><g transform="matrix(1,0,0,1,-0.9090909090909918,0.3532432463755413)"><svg viewBox="0 0 396 101" data-background-color="#001a38" preserveAspectRatio="xMidYMid meet" height="382" width="1500" xmlns="http://www.w3.org/2000/svg" xmlns:xlink="http://www.w3.org/1999/xlink"><g id="tight-bounds" transform="matrix(1,0,0,1,0.2400000000000091,-0.09339677456526374)"><svg viewBox="0 0 395.52 101.18679354913053" height="101.18679354913053" width="395.52"><g><svg viewBox="0 0 395.52 101.18679354913053" height="101.18679354913053" width="395.52"><g transform="matrix(1,0,0,1,0,62.53749782619104)"><svg viewBox="0 0 395.52 38.649295722939485" height="38.649295722939485" width="395.52"><g id="textblocktransform"><svg viewBox="0 0 395.52 38.649295722939485" height="38.649295722939485" width="395.52" id="textblock"><g><svg viewBox="0 0 395.52 38.649295722939485" height="38.649295722939485" width="395.52"><g transform="matrix(1,0,0,1,0,0)"><svg width="395.52" viewBox="3.91 -38.38 398.96 38.99" height="38.649295722939485" data-palette-color="#5994ff"><path d="M17.43 0L9.94 0Q7.42 0 6.12-0.63 4.81-1.27 4.36-2.71 3.91-4.15 3.91-6.54L3.91-6.54 3.91-28.47Q3.91-30.91 4.36-32.34 4.81-33.76 6.12-34.39 7.42-35.01 9.94-35.01L9.94-35.01 17.43-35.01Q22.68-35.01 26.62-33.45 30.57-31.88 32.76-28.16 34.96-24.44 34.96-17.94L34.96-17.94Q34.96-11.45 32.76-7.51 30.57-3.56 26.62-1.78 22.68 0 17.43 0L17.43 0ZM15.65-28.59L14.58-28.59Q12.96-28.59 12.38-27.91 11.79-27.22 11.79-25.56L11.79-25.56 11.79-9.45Q11.79-7.81 12.38-7.1 12.96-6.4 14.58-6.4L14.58-6.4 15.7-6.4Q20.92-6.4 23.79-8.96 26.66-11.52 26.66-17.85L26.66-17.85Q26.66-22.07 25.35-24.4 24.05-26.73 21.58-27.66 19.12-28.59 15.65-28.59L15.65-28.59ZM49.17 0.61L49.17 0.61Q40.48 0.61 40.48-9.91L40.48-9.91 40.45-22.31Q40.45-22.9 40.7-23.22L40.7-23.22Q41.72-24.56 43.7-26.12L43.7-26.12Q44.04-26.37 44.31-26.37L44.31-26.37Q44.63-26.37 44.92-26.12L44.92-26.12Q45.97-25.32 46.69-24.61 47.41-23.9 47.92-23.22L47.92-23.22Q48.17-22.9 48.17-22.31L48.17-22.31 48.17-10.6Q48.17-5.3 52.37-5.3L52.37-5.3Q54.44-5.3 55.69-6.75 56.93-8.2 56.93-10.69L56.93-10.69 56.93-22.31Q56.93-22.9 57.18-23.22L57.18-23.22Q58.2-24.56 60.18-26.12L60.18-26.12Q60.52-26.37 60.79-26.37L60.79-26.37Q61.11-26.37 61.4-26.12L61.4-26.12Q62.45-25.32 63.17-24.61 63.89-23.9 64.4-23.22L64.4-23.22Q64.65-22.9 64.65-22.31L64.65-22.31 64.65-1.12Q64.65-0.66 64.33-0.33 64.01 0 63.52 0L63.52 0 59.86 0Q59.47 0 59.16-0.11 58.86-0.22 58.59-0.54L58.59-0.54 57.08-2.49 56.91-2.49Q56.52-1.93 55.7-1.2 54.88-0.46 53.33 0.07 51.78 0.61 49.17 0.61ZM82.71 0.61L82.71 0.61Q79.56 0.61 77.41 0.15 75.26-0.32 73.8-1 72.33-1.68 71.24-2.37L71.24-2.37 71.24-34.33Q71.24-34.91 71.48-35.23L71.48-35.23Q72.5-36.57 74.48-38.13L74.48-38.13Q74.82-38.38 75.09-38.38L75.09-38.38Q75.41-38.38 75.7-38.13L75.7-38.13Q76.75-37.33 77.47-36.62 78.19-35.91 78.71-35.23L78.71-35.23Q78.95-34.91 78.95-34.33L78.95-34.33 78.95-22.49 79.05-22.49Q80.02-23.73 81.76-24.67 83.49-25.61 86.59-25.61L86.59-25.61Q90.06-25.61 92.3-24.01 94.55-22.41 95.65-19.62 96.75-16.82 96.75-13.21L96.75-13.21Q96.75-9.3 95.45-6.16 94.16-3.03 91.1-1.21 88.03 0.61 82.71 0.61ZM83.03-5.3L83.03-5.3Q85.86-5.3 87.35-7.19 88.84-9.08 88.84-12.6L88.84-12.6Q88.84-16.16 87.51-17.77 86.18-19.38 83.66-19.38L83.66-19.38Q81.64-19.38 80.57-18.55 79.51-17.72 78.95-16.46L78.95-16.46 78.95-6.37Q79.49-5.98 80.48-5.64 81.46-5.3 83.03-5.3ZM108.46 0.61L108.46 0.61Q104.88 0.61 102.76-1.4 100.65-3.42 100.65-6.96L100.65-6.96Q100.65-8.79 101.32-10.36 101.99-11.94 103.67-13.15 105.34-14.36 108.35-15.09 111.37-15.82 116.06-15.94L116.06-15.94Q116.06-18.16 114.95-19.14 113.84-20.12 111.61-20.12L111.61-20.12Q109.61-20.12 108.34-19.43 107.07-18.75 106.76-18.51L106.76-18.51Q106.41-18.21 105.93-18.29L105.93-18.29Q105.27-18.38 104.52-18.63 103.78-18.87 102.92-19.19L102.92-19.19Q102.8-19.24 102.65-19.35 102.51-19.46 102.48-19.68L102.48-19.68Q102.48-19.8 102.51-19.98 102.53-20.17 102.63-20.65L102.63-20.65Q102.73-21.14 102.92-21.86 103.12-22.58 103.29-22.97L103.29-22.97Q103.51-23.39 104.02-23.75L104.02-23.75Q104.44-24.1 106.54-24.85 108.64-25.61 112.61-25.61L112.61-25.61Q123.58-25.61 123.58-14.94L123.58-14.94 123.58-1.12Q123.58-0.66 123.32-0.33 123.06 0 122.45 0L122.45 0 118.79 0Q118.4 0 118.1-0.11 117.79-0.22 117.52-0.54L117.52-0.54 116.01-2.49 115.84-2.49Q114.71-0.85 112.82-0.12 110.93 0.61 108.46 0.61ZM111.15-5.05L111.15-5.05Q113.4-5.05 114.54-6.2 115.69-7.35 116.01-8.57L116.01-8.57 116.01-11.28Q112.61-11.28 110.92-10.75 109.22-10.23 108.66-9.39 108.1-8.54 108.1-7.57L108.1-7.57Q108.1-6.15 108.98-5.6 109.86-5.05 111.15-5.05ZM129.04-33.2L129.04-33.2Q129.04-33.52 129.24-33.76 129.43-34.01 129.75-34.4L129.75-34.4Q130.43-35.18 131.34-36.05 132.24-36.91 133.17-37.72L133.17-37.72Q133.75-38.18 134.05-38.18L134.05-38.18Q134.34-38.18 134.95-37.72L134.95-37.72Q136.93-36.01 138.32-34.4L138.32-34.4Q138.64-34.03 138.84-33.78 139.05-33.52 139.05-33.2L139.05-33.2Q139.05-32.89 138.84-32.64 138.64-32.4 138.3-31.98L138.3-31.98Q137.64-31.23 136.76-30.36 135.88-29.49 134.95-28.71L134.95-28.71Q134.61-28.42 134.41-28.33 134.22-28.25 134.05-28.25L134.05-28.25Q133.88-28.25 133.69-28.33 133.51-28.42 133.12-28.71L133.12-28.71Q132.14-29.49 131.29-30.36 130.43-31.23 129.75-32.03L129.75-32.03Q129.43-32.42 129.24-32.65 129.04-32.89 129.04-33.2ZM137.88-23.71L137.88-1.29Q137.88-0.56 137.58-0.28 137.27 0 136.54 0L136.54 0 131.51 0Q130.78 0 130.47-0.28 130.17-0.56 130.17-1.29L130.17-1.29 130.17-23.71Q130.17-24.44 130.47-24.72 130.78-25 131.51-25L131.51-25 136.54-25Q137.27-25 137.58-24.72 137.88-24.44 137.88-23.71L137.88-23.71ZM168.39 0.59L168.39 0.59Q165.29 0.59 163.25 0.02 161.22-0.54 159.98-1.38 158.75-2.22 158.09-3.05L158.09-3.05Q157.87-3.37 157.7-3.66 157.53-3.96 157.46-4.32L157.46-4.32Q157.36-4.81 157.26-5.6 157.16-6.4 157.24-7.45L157.24-7.45Q157.26-7.89 157.41-8.06L157.41-8.06Q157.58-8.25 157.97-8.35L157.97-8.35Q158.68-8.52 159.81-8.65 160.95-8.79 161.44-8.79L161.44-8.79Q161.95-8.79 162.27-8.59 162.58-8.4 163.02-7.93L163.02-7.93Q163.51-7.42 164.71-6.63 165.9-5.83 168.39-5.83L168.39-5.83Q170.79-5.83 172.01-6.84 173.23-7.84 173.23-9.62L173.23-9.62Q173.23-10.57 172.65-11.41 172.08-12.26 170.57-13.1 169.05-13.94 166.24-14.87L166.24-14.87Q161.61-16.43 159.56-18.75 157.5-21.07 157.5-25.2L157.5-25.2Q157.5-28.61 159.16-30.91 160.82-33.2 163.75-34.38 166.68-35.55 170.52-35.55L170.52-35.55Q173.47-35.55 175.41-34.85 177.35-34.16 178.43-33.29 179.5-32.42 179.82-31.88L179.82-31.88Q180.01-31.57 180.08-31.41 180.14-31.25 180.16-30.98L180.16-30.98Q180.23-30.22 180.21-29.3 180.19-28.37 180.04-27.2L180.04-27.2Q179.97-26.81 179.77-26.66L179.77-26.66Q179.6-26.54 179.23-26.54L179.23-26.54Q176.86-26.49 175.57-26.78L175.57-26.78Q175.06-26.9 174.89-27.03 174.72-27.15 174.45-27.42L174.45-27.42Q174.06-27.88 173.21-28.5 172.37-29.13 170.52-29.13L170.52-29.13Q167.95-29.13 166.88-27.97 165.81-26.81 165.81-25.37L165.81-25.37Q165.81-23.66 167.39-22.69 168.98-21.73 172.4-20.51L172.4-20.51Q175.25-19.51 177.3-18.33 179.36-17.16 180.44-15.33 181.53-13.5 181.53-10.5L181.53-10.5Q181.53-6.76 179.81-4.3 178.09-1.83 175.12-0.62 172.15 0.59 168.39 0.59ZM194.73-16.46L194.73-1.29Q194.73-0.56 194.43-0.28 194.12 0 193.39 0L193.39 0 188.36 0Q187.63 0 187.32-0.28 187.02-0.56 187.02-1.29L187.02-1.29 187.02-34.33Q187.02-34.91 187.26-35.23L187.26-35.23Q188.29-36.57 190.27-38.13L190.27-38.13Q190.61-38.38 190.88-38.38L190.88-38.38Q191.19-38.38 191.49-38.13L191.49-38.13Q192.54-37.33 193.26-36.62 193.98-35.91 194.49-35.23L194.49-35.23Q194.73-34.91 194.73-34.33L194.73-34.33 194.73-22.49 194.83-22.49Q195.37-23.19 196.22-23.91 197.08-24.63 198.51-25.12 199.93-25.61 202.16-25.61L202.16-25.61Q204.4-25.61 206.48-24.68 208.55-23.75 209.87-21.56 211.19-19.36 211.19-15.55L211.19-15.55 211.19-1.29Q211.19-0.56 210.88-0.28 210.58 0 209.85 0L209.85 0 204.82 0Q204.08 0 203.78-0.28 203.47-0.56 203.47-1.29L203.47-1.29 203.47-14.21Q203.47-16.92 202.35-18.15 201.23-19.38 199.3-19.38L199.3-19.38Q197.39-19.38 196.34-18.55 195.3-17.72 194.73-16.46L194.73-16.46ZM216.65-33.2L216.65-33.2Q216.65-33.52 216.85-33.76 217.05-34.01 217.36-34.4L217.36-34.4Q218.05-35.18 218.95-36.05 219.85-36.91 220.78-37.72L220.78-37.72Q221.37-38.18 221.66-38.18L221.66-38.18Q221.95-38.18 222.56-37.72L222.56-37.72Q224.54-36.01 225.93-34.4L225.93-34.4Q226.25-34.03 226.46-33.78 226.66-33.52 226.66-33.2L226.66-33.2Q226.66-32.89 226.46-32.64 226.25-32.4 225.91-31.98L225.91-31.98Q225.25-31.23 224.37-30.36 223.49-29.49 222.56-28.71L222.56-28.71Q222.22-28.42 222.03-28.33 221.83-28.25 221.66-28.25L221.66-28.25Q221.49-28.25 221.31-28.33 221.12-28.42 220.73-28.71L220.73-28.71Q219.76-29.49 218.9-30.36 218.05-31.23 217.36-32.03L217.36-32.03Q217.05-32.42 216.85-32.65 216.65-32.89 216.65-33.2ZM225.49-23.71L225.49-1.29Q225.49-0.56 225.19-0.28 224.88 0 224.15 0L224.15 0 219.12 0Q218.39 0 218.08-0.28 217.78-0.56 217.78-1.29L217.78-1.29 217.78-23.71Q217.78-24.44 218.08-24.72 218.39-25 219.12-25L219.12-25 224.15-25Q224.88-25 225.19-24.72 225.49-24.44 225.49-23.71L225.49-23.71ZM239.09 0.61L239.09 0.61Q236.48 0.61 234.76 0.17 233.03-0.27 232-0.89 230.96-1.51 230.37-2.03L230.37-2.03Q229.93-2.44 230.28-2.95L230.28-2.95 232.77-6.64Q233.3-7.42 233.99-6.74L233.99-6.74Q234.69-6.05 235.9-5.41 237.11-4.76 238.92-4.76L238.92-4.76Q240.53-4.76 241.57-5.31 242.6-5.86 242.6-6.91L242.6-6.91Q242.6-7.64 242.14-8.11 241.68-8.57 240.5-9.06 239.33-9.55 237.23-10.3L237.23-10.3Q234.13-11.43 232.55-13.01 230.96-14.6 230.96-17.65L230.96-17.65Q230.96-20.46 232.51-22.22 234.06-23.97 236.49-24.79 238.92-25.61 241.55-25.61L241.55-25.61Q244.9-25.61 246.25-24.99 247.61-24.37 248-24.02L248-24.02Q248.37-23.71 248.51-23.29L248.51-23.29Q248.83-22.34 249-20.78L249-20.78Q249.1-19.87 248.54-19.58L248.54-19.58Q248.24-19.41 247.61-19.21 246.97-19.02 246.34-18.87 245.71-18.73 245.39-18.73L245.39-18.73Q245.29-18.73 245.18-18.79 245.07-18.85 244.8-19.09L244.8-19.09Q244.48-19.41 243.72-19.82 242.95-20.24 241.6-20.24L241.6-20.24Q240.29-20.24 239.39-19.81 238.5-19.38 238.5-18.31L238.5-18.31Q238.5-17.14 239.64-16.55 240.77-15.97 243.39-15.04L243.39-15.04Q245.44-14.33 246.96-13.49 248.49-12.65 249.32-11.29 250.15-9.94 250.15-7.64L250.15-7.64Q250.15-4.66 248.52-2.84 246.9-1.03 244.37-0.21 241.85 0.61 239.09 0.61ZM262.62-16.46L262.62-1.29Q262.62-0.56 262.32-0.28 262.01 0 261.28 0L261.28 0 256.25 0Q255.52 0 255.21-0.28 254.91-0.56 254.91-1.29L254.91-1.29 254.91-34.33Q254.91-34.91 255.15-35.23L255.15-35.23Q256.18-36.57 258.15-38.13L258.15-38.13Q258.5-38.38 258.76-38.38L258.76-38.38Q259.08-38.38 259.37-38.13L259.37-38.13Q260.42-37.33 261.14-36.62 261.86-35.91 262.38-35.23L262.38-35.23Q262.62-34.91 262.62-34.33L262.62-34.33 262.62-22.49 262.72-22.49Q263.26-23.19 264.11-23.91 264.97-24.63 266.39-25.12 267.82-25.61 270.04-25.61L270.04-25.61Q272.29-25.61 274.36-24.68 276.44-23.75 277.76-21.56 279.08-19.36 279.08-15.55L279.08-15.55 279.08-1.29Q279.08-0.56 278.77-0.28 278.47 0 277.73 0L277.73 0 272.7 0Q271.97 0 271.67-0.28 271.36-0.56 271.36-1.29L271.36-1.29 271.36-14.21Q271.36-16.92 270.24-18.15 269.12-19.38 267.19-19.38L267.19-19.38Q265.28-19.38 264.23-18.55 263.18-17.72 262.62-16.46L262.62-16.46ZM292.14 0.61L292.14 0.61Q288.55 0.61 286.43-1.4 284.32-3.42 284.32-6.96L284.32-6.96Q284.32-8.79 284.99-10.36 285.67-11.94 287.34-13.15 289.01-14.36 292.03-15.09 295.04-15.82 299.73-15.94L299.73-15.94Q299.73-18.16 298.62-19.14 297.51-20.12 295.29-20.12L295.29-20.12Q293.28-20.12 292.01-19.43 290.74-18.75 290.43-18.51L290.43-18.51Q290.08-18.21 289.6-18.29L289.6-18.29Q288.94-18.38 288.19-18.63 287.45-18.87 286.59-19.19L286.59-19.19Q286.47-19.24 286.33-19.35 286.18-19.46 286.15-19.68L286.15-19.68Q286.15-19.8 286.18-19.98 286.2-20.17 286.3-20.65L286.3-20.65Q286.4-21.14 286.59-21.86 286.79-22.58 286.96-22.97L286.96-22.97Q287.18-23.39 287.69-23.75L287.69-23.75Q288.11-24.1 290.21-24.85 292.31-25.61 296.29-25.61L296.29-25.61Q307.25-25.61 307.25-14.94L307.25-14.94 307.25-1.12Q307.25-0.66 306.99-0.33 306.74 0 306.12 0L306.12 0 302.46 0Q302.07 0 301.77-0.11 301.46-0.22 301.19-0.54L301.19-0.54 299.68-2.49 299.51-2.49Q298.39-0.85 296.49-0.12 294.6 0.61 292.14 0.61ZM294.82-5.05L294.82-5.05Q297.07-5.05 298.21-6.2 299.36-7.35 299.68-8.57L299.68-8.57 299.68-11.28Q296.29-11.28 294.59-10.75 292.89-10.23 292.33-9.39 291.77-8.54 291.77-7.57L291.77-7.57Q291.77-6.15 292.65-5.6 293.53-5.05 294.82-5.05ZM339.1 0.61L339.1 0.61Q335.95 0.61 333.81 0.15 331.66-0.32 330.19-1 328.73-1.68 327.63-2.37L327.63-2.37 327.63-34.33Q327.63-34.91 327.87-35.23L327.87-35.23Q328.9-36.57 330.88-38.13L330.88-38.13Q331.22-38.38 331.49-38.38L331.49-38.38Q331.8-38.38 332.1-38.13L332.1-38.13Q333.15-37.33 333.87-36.62 334.59-35.91 335.1-35.23L335.1-35.23Q335.34-34.91 335.34-34.33L335.34-34.33 335.34-22.49 335.44-22.49Q336.42-23.73 338.15-24.67 339.88-25.61 342.99-25.61L342.99-25.61Q346.45-25.61 348.7-24.01 350.94-22.41 352.04-19.62 353.14-16.82 353.14-13.21L353.14-13.21Q353.14-9.3 351.85-6.16 350.55-3.03 347.49-1.21 344.43 0.61 339.1 0.61ZM339.42-5.3L339.42-5.3Q342.25-5.3 343.74-7.19 345.23-9.08 345.23-12.6L345.23-12.6Q345.23-16.16 343.9-17.77 342.57-19.38 340.06-19.38L340.06-19.38Q338.03-19.38 336.97-18.55 335.91-17.72 335.34-16.46L335.34-16.46 335.34-6.37Q335.88-5.98 336.87-5.64 337.86-5.3 339.42-5.3ZM364.86 0.61L364.86 0.61Q361.27 0.61 359.16-1.4 357.05-3.42 357.05-6.96L357.05-6.96Q357.05-8.79 357.72-10.36 358.39-11.94 360.06-13.15 361.73-14.36 364.75-15.09 367.76-15.82 372.45-15.94L372.45-15.94Q372.45-18.16 371.34-19.14 370.23-20.12 368.01-20.12L368.01-20.12Q366.01-20.12 364.74-19.43 363.47-18.75 363.15-18.51L363.15-18.51Q362.81-18.21 362.32-18.29L362.32-18.29Q361.66-18.38 360.91-18.63 360.17-18.87 359.32-19.19L359.32-19.19Q359.19-19.24 359.05-19.35 358.9-19.46 358.88-19.68L358.88-19.68Q358.88-19.8 358.9-19.98 358.92-20.17 359.02-20.65L359.02-20.65Q359.12-21.14 359.32-21.86 359.51-22.58 359.68-22.97L359.68-22.97Q359.9-23.39 360.41-23.75L360.41-23.75Q360.83-24.1 362.93-24.85 365.03-25.61 369.01-25.61L369.01-25.61Q379.97-25.61 379.97-14.94L379.97-14.94 379.97-1.12Q379.97-0.66 379.71-0.33 379.46 0 378.85 0L378.85 0 375.18 0Q374.79 0 374.49-0.11 374.18-0.22 373.92-0.54L373.92-0.54 372.4-2.49 372.23-2.49Q371.11-0.85 369.22-0.12 367.32 0.61 364.86 0.61ZM367.54-5.05L367.54-5.05Q369.79-5.05 370.94-6.2 372.08-7.35 372.4-8.57L372.4-8.57 372.4-11.28Q369.01-11.28 367.31-10.75 365.61-10.23 365.05-9.39 364.49-8.54 364.49-7.57L364.49-7.57Q364.49-6.15 365.37-5.6 366.25-5.05 367.54-5.05ZM394.27-22.17L394.27-20.36 394.37-20.36Q396.2-25.44 400.96-25.44L400.96-25.44Q401.57-25.44 401.96-25.38 402.36-25.32 402.5-25.27L402.5-25.27Q402.87-25.15 402.87-24.71L402.87-24.71 402.87-18.82Q402.87-18.07 401.99-18.41L401.99-18.41Q401.7-18.53 401.15-18.66 400.6-18.8 399.62-18.8L399.62-18.8Q397.11-18.8 395.69-16.96 394.27-15.11 394.27-11.94L394.27-11.94 394.27-1.29Q394.27-0.56 393.97-0.28 393.66 0 392.93 0L392.93 0 387.9 0Q387.17 0 386.86-0.28 386.56-0.56 386.56-1.29L386.56-1.29 386.56-21.75Q386.56-22.34 386.8-22.66L386.8-22.66Q387.32-23.34 388.04-24.05 388.76-24.76 389.81-25.56L389.81-25.56Q390-25.71 390.2-25.76 390.39-25.81 390.54-25.81L390.54-25.81Q390.88-25.81 391.22-25.56L391.22-25.56Q393.25-23.97 394.05-22.85L394.05-22.85Q394.27-22.56 394.27-22.17L394.27-22.17Z" opacity="1" transform="matrix(1,0,0,1,0,0)" fill="#5994ff" class="wordmark-text-0" data-fill-palette-color="primary" id="text-0"></path></svg></g></svg></g></svg></g></svg></g><g transform="matrix(1,0,0,1,174.52762588807232,0)"><svg viewBox="0 0 46.464748223855324 53.41332668910238" height="53.41332668910238" width="46.464748223855324"><g><svg xmlns="http://www.w3.org/2000/svg" xmlns:xlink="http://www.w3.org/1999/xlink" version="1.1" x="8.000000000000002" y="0" viewBox="22.6954243 6.947 44.443479899999986 77.922" enable-background="new 0 0 90 90" xml:space="preserve" height="53.41332668910238" width="30.46474822385532" class="icon-icon-0" data-fill-palette-color="accent" id="icon-0"><rect x="42.917" y="19.911" fill="#a059ff" width="4" height="32.833" data-fill-palette-color="accent"></rect><polygon fill="#a059ff" points="46.908,13.906 42.909,13.906 40.825,6.947 48.992,6.947 " data-fill-palette-color="accent"></polygon><polygon fill="#a059ff" points="58.854,84.869 30.979,84.869 36.104,68.093 34.104,55.744 55.604,55.744 53.791,68.093 " data-fill-palette-color="accent"></polygon><g fill="#a059ff" data-fill-palette-color="accent"><rect x="25.574" y="45.359" transform="matrix(0.7071 -0.7071 0.7071 0.7071 -27.4613 35.0892)" fill="#a059ff" width="6.104" height="10.668" data-fill-palette-color="accent"></rect></g><g fill="#a059ff" data-fill-palette-color="accent"><rect x="58.157" y="45.359" transform="matrix(0.7071 0.7071 -0.7071 0.7071 53.7733 -28.4335)" fill="#a059ff" width="6.104" height="10.669" data-fill-palette-color="accent"></rect></g><polygon fill="#a059ff" points="54.425,17.911 35.608,17.911 31.297,13.738 32.688,12.301 36.417,15.911 53.604,15.911   57.248,12.309 58.654,13.73 " data-fill-palette-color="accent"></polygon></svg></g></svg></g><g><rect width="174.52762588807232" height="3.485433374367869" y="48.927893314734504" x="220.99237411192763" fill="#a059ff" data-fill-palette-color="accent"></rect><rect width="174.52762588807232" height="3.485433374367869" y="48.927893314734504" x="0" fill="#a059ff" data-fill-palette-color="accent"></rect><rect width="174.52762588807232" height="3.485433374367869" y="41.95702656599877" x="220.99237411192763" fill="#a059ff" data-fill-palette-color="accent"></rect><rect width="174.52762588807232" height="3.485433374367869" y="41.95702656599877" x="0" fill="#a059ff" data-fill-palette-color="accent"></rect></g></svg></g><defs></defs></svg><rect width="395.52" height="101.18679354913053" fill="none" stroke="none" visibility="hidden"></rect></g></svg></g></svg>