<svg viewBox="0 0 375 90" fill="none" xmlns="http://www.w3.org/2000/svg">
<mask id="mask0" mask-type="alpha" maskUnits="userSpaceOnUse" x="0" y="0" width="375" height="90">
<rect width="375" height="116" fill="black"/>
<rect width="375" height="116" fill="black"/>
<rect width="375" height="116" fill="black"/>
<rect width="375" height="116" fill="black"/>
<rect width="375" height="116" fill="black"/>
<rect width="375" height="116" fill="black"/>
<rect width="375" height="116" fill="black"/>
<rect width="375" height="116" fill="black"/>
<rect width="375" height="116" fill="black"/>
<rect width="375" height="116" fill="black"/>
<rect width="375" height="116" fill="black"/>
</mask>
<g mask="url(#mask0)">
<path d="M422.289 -95V-85.8681L413.128 -95H385.25L376.09 -85.8681V-95H375.3V-85.8681L366.139 -95H338.261L329.1 -85.8681V-95H328.31V-85.8681L319.11 -95H291.232L282.071 -85.8681V-95H281.281V-85.8681L272.12 -95H244.203L235.042 -85.8681V-95H234.253V-85.8681L225.092 -95H197.214L188.053 -85.8681V-95H187.934H187.342H187.145V-85.8681L177.984 -95H150.106L140.945 -85.8681V-95H140.155V-85.8681L130.994 -95H103.116L93.9555 -85.8681V-95H93.1657V-85.8681L83.9653 -95H56.0875L46.9266 -85.8681V-95H46.1368V-85.8681L36.9759 -95H9.09809L-0.0628777 -85.8681V-95H-0.852615V-85.8681L-10.0531 -95H-37.9308L-47.0918 -85.8681V-95H-47.8026H-48V-84.9984V-56.6935V-37.9949V-9.69006V8.96901V37.2739V55.9725V84.2774V92.4605V92.5791V102.462V130.727V149.426V177.731V196.43V224.734V243.393V271.698V280H-47.8026H-47.0128V271.698L-32.837 257.585L-47.2892 243.077H-47.2103L-24.1499 266.164L-37.9308 279.96H-10.0531L-23.834 266.164L-15.1469 257.467L-0.892101 271.659V279.96H-0.102364V271.659L14.1524 257.467L22.8395 266.164L9.0586 279.96H36.9364L23.1554 266.164L31.8426 257.467L46.0973 271.659V279.96H46.8871V271.659L61.1418 257.467L69.829 266.164L56.048 279.96H83.9258L70.1449 266.164L78.832 257.467L93.0868 271.659V279.96H93.8765V271.659L108.131 257.467L116.818 266.164L103.037 279.96H130.915L117.134 266.164L125.821 257.467L140.076 271.659V279.96H140.866V271.659L155.121 257.467L163.808 266.164L150.027 279.96H177.905L164.124 266.164L172.811 257.467L187.066 271.659V279.96H187.263H187.855H188.053V271.659L202.229 257.546L187.855 243.156V243.077L210.916 266.164L197.214 280H225.092L211.311 266.203L219.998 257.506L234.253 271.698V280H235.042V271.698L249.297 257.506L257.984 266.203L244.203 280H272.081L258.3 266.203L266.987 257.506L281.242 271.698V280H282.032V271.698L296.286 257.506L304.974 266.203L291.193 280H319.07L305.289 266.203L313.977 257.506L328.231 271.698V280H329.021V271.698L343.276 257.506L351.963 266.203L338.182 280H366.06L352.279 266.203L360.966 257.506L375.221 271.698V280H376.011V271.698L390.265 257.506L398.952 266.203L385.172 280H413.049L399.268 266.203L407.955 257.506L422.21 271.698V280H423V271.698V243.196V243.077V224.813V196.311V195.52V177.81V149.307V148.675V130.806V102.304V101.948V92.5V92.3814V84.2378V55.7353V55.6167V37.3134V8.81088V8.02025V-9.611V-38.1135V-38.746V-56.575V-85.0775V-85.4333V-95H422.289ZM-23.5971 -79.8988L-9.77666 -93.6559L-1.56338 -85.4333L-23.5971 -63.3744V-79.8988ZM-38.2072 -93.6559L-24.3868 -79.8988V-63.3744L-46.4205 -85.4333L-38.2072 -93.6559ZM-47.0128 -9.69006L-32.8765 -23.7634L-24.1499 -15.0269L-47.0128 7.82259V-9.69006ZM-46.4205 -38.5089L-38.2072 -46.7315L-24.3868 -32.9348V-16.45L-46.4205 -38.5089ZM-24.3868 14.0686V30.4744L-46.4205 8.41557L-38.2467 0.232452L-24.3868 14.0686ZM-47.0128 37.2739L-32.837 23.161L-24.1499 31.858L-47.0128 54.747V37.2739ZM-24.3868 61.0326V77.3593L-46.4205 55.34L-38.2862 47.1964L-24.3868 61.0326ZM-47.2892 55.6562H-47.2103L-24.1499 78.7429L-37.8124 92.4209H-37.9308L-47.0918 101.553V92.5791H-46.9733V84.2774L-32.7975 70.1645L-47.2892 55.6562ZM-24.3868 107.522V124.046L-46.4205 101.988L-38.2072 93.765L-24.3868 107.522ZM-24.3868 264.82L-46.4205 242.761L-38.2862 234.617L-24.3868 248.454V264.82ZM-47.0128 242.168V224.695L-32.837 210.582L-24.1499 219.279L-47.0128 242.168ZM-46.4205 195.837L-38.2467 187.653L-24.3868 201.49V217.895L-46.4205 195.837ZM-47.0128 195.283V177.731L-32.8765 163.658L-24.1499 172.394L-47.0128 195.283ZM-46.4205 148.912L-38.2072 140.689L-24.3868 154.486V170.971L-46.4205 148.912ZM-47.0128 148.359V130.727L-32.916 116.694L-24.1499 125.47L-47.0128 148.359ZM-47.0128 -39.0623V-56.6935L-32.916 -70.7274L-24.1499 -61.9513L-47.0128 -39.0623ZM-23.5971 264.82V248.493L-9.69769 234.657L-1.56338 242.8L-23.5971 264.82ZM-0.892101 242.287L-23.834 219.279L-15.1469 210.582L-0.892101 224.813V242.287ZM-23.5971 217.895V201.49L-9.69769 187.653L-1.5239 195.837L-23.5971 217.895ZM-0.892101 195.362L-23.8735 172.355L-15.1469 163.618L-0.931591 177.81V195.362H-0.892101ZM-23.5971 170.971V154.486L-9.77666 140.689L-1.56338 148.912L-23.5971 170.971ZM-0.892101 148.438L-23.8735 125.43L-15.1074 116.654L-0.892101 130.806V148.438ZM-23.5971 124.046V107.522L-9.77666 93.765L-1.56338 101.988L-23.5971 124.046ZM-0.892101 92.4209V92.5395V101.513L-10.0531 92.3814H-10.1715L-23.834 78.7034L-15.1469 70.0063L-0.892101 84.1983V92.4209ZM-23.5971 77.3988V61.0721L-9.69769 47.2359L-1.56338 55.3795L-23.5971 77.3988ZM-0.892101 54.8656L-23.8735 31.858L-15.1864 23.161L-0.931591 37.3925V54.8656H-0.892101ZM-23.5971 30.4744V14.0686L-9.73717 0.232452L-1.56338 8.41557L-23.5971 30.4744ZM-0.892101 7.94118L-23.8735 -15.0664L-15.1469 -23.803L-0.931591 -9.611V7.94118H-0.892101ZM-23.5971 -16.45V-32.9348L-9.77666 -46.7315L-1.56338 -38.5089L-23.5971 -16.45ZM-0.892101 -38.9832L-23.834 -61.9513L-15.0679 -70.7274L-0.852615 -56.575V-38.9832H-0.892101ZM23.4318 -79.8988L37.2523 -93.6559L45.4655 -85.4333L23.4318 -63.3744V-79.8988ZM8.82168 -93.6559L22.6421 -79.8988V-63.3744L0.568913 -85.4333L8.82168 -93.6559ZM-0.102364 92.5395V92.4209V84.2774L14.1524 70.0854L22.8395 78.7824L9.17706 92.4605H9.0586L-0.102364 101.592V92.5395ZM0.568913 55.34L8.70322 47.1964L22.6026 61.0326V77.3593L0.568913 55.34ZM22.6026 107.522V124.046L0.568913 101.988L8.78219 93.765L22.6026 107.522ZM22.6026 264.82L0.568913 242.761L8.70322 234.617L22.6026 248.454V264.82ZM-0.102364 242.287V224.813L14.1524 210.582L22.8395 219.279L-0.102364 242.287ZM0.568913 195.837L8.7427 187.653L22.6026 201.49V217.895L0.568913 195.837ZM-0.102364 195.362V177.81L14.1129 163.618L22.8395 172.355L-0.102364 195.362ZM0.568913 148.912L8.78219 140.689L22.6026 154.486V170.971L0.568913 148.912ZM-0.102364 148.438V130.806L14.1129 116.654L22.879 125.43L-0.102364 148.438ZM-0.102364 54.8656V37.3925L14.1524 23.161L22.8395 31.858L-0.102364 54.8656ZM0.568913 8.41557L8.7427 0.232452L22.6026 14.0686V30.4744L0.568913 8.41557ZM-0.102364 7.94118V-9.611L14.1129 -23.803L22.8395 -15.0664L-0.102364 7.94118ZM0.568913 -38.5089L8.78219 -46.7315L22.6026 -32.9348V-16.45L0.568913 -38.5089ZM-0.102364 -38.9832V-56.575L14.1129 -70.7274L22.879 -61.9513L-0.102364 -38.9832ZM23.4318 264.82V248.493L37.3312 234.657L45.4655 242.8L23.4318 264.82ZM46.1368 242.287L23.1554 219.279L31.8426 210.582L46.0973 224.813V242.287H46.1368ZM23.4318 217.895V201.49L37.2917 187.653L45.4655 195.837L23.4318 217.895ZM46.1368 195.362L23.1554 172.355L31.882 163.618L46.0973 177.81V195.362H46.1368ZM23.4318 170.971V154.486L37.2523 140.689L45.4655 148.912L23.4318 170.971ZM46.1368 148.438L23.1554 125.43L31.9215 116.654L46.1368 130.806V148.438ZM23.4318 124.046V107.522L37.2523 93.765L45.4655 101.988L23.4318 124.046ZM46.1368 92.4209V92.5395V101.513L36.9759 92.3814H36.8574L23.1949 78.7034L31.882 70.0063L46.1368 84.1983V92.4209ZM23.4318 77.3988V61.0721L37.3312 47.2359L45.4655 55.3795L23.4318 77.3988ZM46.1368 54.8656L23.1554 31.858L31.8426 23.161L46.0973 37.3925V54.8656H46.1368ZM23.4318 30.4744V14.0686L37.2917 0.232452L45.4655 8.41557L23.4318 30.4744ZM46.1368 7.94118L23.1554 -15.0664L31.882 -23.803L46.0973 -9.611V7.94118H46.1368ZM23.4318 -16.45V-32.9348L37.2523 -46.7315L45.4655 -38.5089L23.4318 -16.45ZM46.1368 -38.9832L23.1554 -61.9908L31.9215 -70.7669L46.1368 -56.6145V-38.9832ZM70.4213 -79.8988L84.2417 -93.6559L92.455 -85.4333L70.4213 -63.3744V-79.8988ZM55.8111 -93.6559L69.6315 -79.8988V-63.3744L47.5978 -85.4333L55.8111 -93.6559ZM46.9266 92.5395V92.4209V84.2774L61.1813 70.0854L69.8685 78.7824L56.206 92.4605H56.0875L46.9266 101.592V92.5395ZM47.5978 55.34L55.7321 47.1964L69.6315 61.0326V77.3593L47.5978 55.34ZM69.6315 107.522V124.046L47.5978 101.988L55.8111 93.765L69.6315 107.522ZM69.6315 264.82L47.5978 242.761L55.7321 234.617L69.6315 248.454V264.82ZM46.9266 242.287V224.813L61.1813 210.582L69.8685 219.279L46.9266 242.287ZM47.5978 195.837L55.7716 187.653L69.6315 201.49V217.895L47.5978 195.837ZM46.9266 195.362V177.81L61.1418 163.618L69.8685 172.355L46.9266 195.362ZM47.5978 148.912L55.8111 140.689L69.6315 154.486V170.971L47.5978 148.912ZM46.9266 148.438V130.806L61.1418 116.654L69.908 125.43L46.9266 148.438ZM46.9266 54.8656V37.3925L61.1813 23.161L69.8685 31.858L46.9266 54.8656ZM47.5978 8.41557L55.7716 0.232452L69.6315 14.0686V30.4744L47.5978 8.41557ZM46.9266 7.94118V-9.611L61.1418 -23.803L69.8685 -15.0664L46.9266 7.94118ZM47.5978 -38.5089L55.8111 -46.7315L69.6315 -32.9348V-16.45L47.5978 -38.5089ZM46.9266 -38.9832V-56.575L61.1418 -70.7274L69.908 -61.9513L46.9266 -38.9832ZM70.4213 264.82V248.493L84.3207 234.657L92.455 242.8L70.4213 264.82ZM93.1263 242.287L70.1843 219.279L78.8715 210.582L93.1263 224.813V242.287ZM70.4213 217.895V201.49L84.2812 187.653L92.455 195.837L70.4213 217.895ZM93.1263 195.362L70.1449 172.355L78.8715 163.618L93.0868 177.81V195.362H93.1263ZM70.4213 170.971V154.486L84.2417 140.689L92.455 148.912L70.4213 170.971ZM93.1263 148.438L70.1449 125.43L78.911 116.654L93.1263 130.806V148.438ZM70.4213 124.046V107.522L84.2417 93.765L92.455 101.988L70.4213 124.046ZM93.1263 92.4209V92.5395V101.513L83.9653 92.3814H83.8468L70.1843 78.7034L78.8715 70.0063L93.1263 84.1983V92.4209ZM70.4213 77.3988V61.0721L84.3207 47.2359L92.455 55.3795L70.4213 77.3988ZM93.1263 54.8656L70.1449 31.858L78.832 23.161L93.0868 37.3925V54.8656H93.1263ZM70.4213 30.4744V14.0686L84.2812 0.232452L92.455 8.41557L70.4213 30.4744ZM93.1263 7.94118L70.1449 -15.0664L78.8715 -23.803L93.0868 -9.611V7.94118H93.1263ZM70.4213 -16.45V-32.9348L84.2417 -46.7315L92.455 -38.5089L70.4213 -16.45ZM93.1263 -38.9832L70.1449 -61.9908L78.911 -70.7669L93.1263 -56.6145V-38.9832ZM117.45 -79.8988L131.271 -93.6559L139.484 -85.4333L117.45 -63.3744V-79.8988ZM102.84 -93.6559L116.66 -79.8988V-63.3744L94.6268 -85.4333L102.84 -93.6559ZM93.916 -9.611L108.131 -23.803L116.858 -15.0664L93.8765 7.94118V-9.611H93.916ZM94.5873 -38.5089L102.801 -46.7315L116.621 -32.9348V-16.45L94.5873 -38.5089ZM116.621 14.0686V30.4744L94.5873 8.41557L102.761 0.232452L116.621 14.0686ZM93.916 37.3925L108.171 23.161L116.858 31.858L93.8765 54.8656V37.3925H93.916ZM116.621 61.0326V77.3593L94.5873 55.3004L102.722 47.1569L116.621 61.0326ZM93.916 92.5395V92.4209V84.2774L108.171 70.0854L116.858 78.7824L103.235 92.4209H103.116L93.9555 101.553V92.5395H93.916ZM116.621 107.522V124.046L94.5873 101.988L102.801 93.765L116.621 107.522ZM116.621 264.82L94.5873 242.761L102.722 234.617L116.621 248.454V264.82ZM93.916 242.287V224.813L108.171 210.582L116.858 219.279L93.916 242.287ZM94.5873 195.837L102.761 187.653L116.621 201.49V217.895L94.5873 195.837ZM93.916 195.362V177.81L108.131 163.618L116.858 172.355L93.916 195.362ZM94.5873 148.912L102.801 140.689L116.621 154.486V170.971L94.5873 148.912ZM93.916 148.438V130.806L108.131 116.654L116.897 125.43L93.916 148.438ZM93.916 -38.9832V-56.575L108.131 -70.7274L116.897 -61.9513L93.916 -38.9832ZM117.45 264.82V248.493L131.35 234.657L139.484 242.8L117.45 264.82ZM140.155 242.287L117.174 219.279L125.861 210.582L140.116 224.813V242.287H140.155ZM117.45 217.895V201.49L131.31 187.653L139.484 195.837L117.45 217.895ZM140.155 195.362L117.174 172.355L125.9 163.618L140.116 177.81V195.362H140.155ZM117.45 170.971V154.486L131.271 140.689L139.484 148.912L117.45 170.971ZM140.155 148.438L117.174 125.43L125.94 116.654L140.155 130.806V148.438ZM117.45 124.046V107.522L131.271 93.765L139.484 101.988L117.45 124.046ZM140.155 92.4209V92.5395V101.513L130.994 92.3814H130.876L117.213 78.7034L125.9 70.0063L140.155 84.1983V92.4209ZM117.45 77.3988V61.0721L131.35 47.2359L139.484 55.3795L117.45 77.3988ZM140.155 54.8656L117.174 31.858L125.861 23.161L140.116 37.3925V54.8656H140.155ZM117.45 30.4744V14.0686L131.31 0.232452L139.484 8.41557L117.45 30.4744ZM140.155 7.94118L117.174 -15.0664L125.9 -23.803L140.116 -9.611V7.94118H140.155ZM117.45 -16.45V-32.9348L131.271 -46.7315L139.484 -38.5089L117.45 -16.45ZM140.155 -38.9832L117.174 -61.9908L125.94 -70.7669L140.155 -56.6145V-38.9832ZM164.44 -79.8988L178.26 -93.6559L186.473 -85.4333L164.44 -63.3744V-79.8988ZM149.829 -93.6559L163.65 -79.8988V-63.3744L141.616 -85.4333L149.829 -93.6559ZM140.945 -9.611L155.16 -23.803L163.887 -15.0664L140.905 7.94118V-9.611H140.945ZM141.616 -38.5089L149.829 -46.7315L163.65 -32.9348V-16.45L141.616 -38.5089ZM163.65 14.0686V30.4744L141.616 8.41557L149.79 0.232452L163.65 14.0686ZM140.945 37.3925L155.2 23.161L163.887 31.858L140.905 54.8656V37.3925H140.945ZM163.65 61.0326V77.3593L141.616 55.3004L149.75 47.1569L163.65 61.0326ZM140.945 92.5395V92.4209V84.2774L155.2 70.0854L163.887 78.7824L150.224 92.4209H150.106L140.945 101.553V92.5395ZM163.65 107.522V124.046L141.616 101.988L149.829 93.765L163.65 107.522ZM163.65 264.82L141.616 242.761L149.75 234.617L163.65 248.454V264.82ZM140.945 242.287V224.813L155.2 210.582L163.887 219.279L140.945 242.287ZM141.616 195.837L149.79 187.653L163.65 201.49V217.895L141.616 195.837ZM140.945 195.362V177.81L155.16 163.618L163.887 172.355L140.945 195.362ZM141.616 148.912L149.829 140.689L163.65 154.486V170.971L141.616 148.912ZM140.945 148.438V130.806L155.16 116.654L163.926 125.43L140.945 148.438ZM140.945 -38.9832V-56.575L155.16 -70.7274L163.926 -61.9513L140.945 -38.9832ZM164.44 264.82V248.493L178.339 234.657L186.473 242.8L164.44 264.82ZM187.145 242.287L164.203 219.279L172.89 210.582L187.145 224.813V242.287ZM164.44 217.895V201.49L178.3 187.653L186.473 195.837L164.44 217.895ZM187.145 195.362L164.163 172.355L172.89 163.618L187.105 177.81V195.362H187.145ZM164.44 170.971V154.486L178.26 140.689L186.473 148.912L164.44 170.971ZM187.145 148.438L164.163 125.43L172.929 116.654L187.145 130.806V148.438ZM164.44 124.046V107.522L178.26 93.765L186.473 101.988L164.44 124.046ZM187.145 92.4209V92.5395V101.513L177.984 92.3814H177.865L164.203 78.7034L172.89 70.0063L187.145 84.1983V92.4209ZM164.44 77.3988V61.0721L178.339 47.2359L186.473 55.3795L164.44 77.3988ZM187.145 54.8656L164.163 31.858L172.85 23.161L187.105 37.3925V54.8656H187.145ZM164.44 30.4744V14.0686L178.3 0.232452L186.473 8.41557L164.44 30.4744ZM187.145 7.94118L164.163 -15.0664L172.89 -23.803L187.105 -9.611V7.94118H187.145ZM164.44 -16.45V-32.9348L178.26 -46.7315L186.473 -38.5089L164.44 -16.45ZM187.145 -38.9832L164.163 -61.9908L172.929 -70.7669L187.145 -56.6145V-38.9832ZM211.548 -79.8988L225.368 -93.6559L233.581 -85.4333L211.548 -63.3744V-79.8988ZM196.937 -93.6559L210.758 -79.8988V-63.3744L188.724 -85.4333L196.937 -93.6559ZM188.171 -9.69006L202.308 -23.7634L211.034 -15.0269L188.171 7.86212V-9.69006ZM188.724 -38.5089L196.937 -46.7315L210.758 -32.9348V-16.45L188.724 -38.5089ZM210.758 14.0686V30.4744L188.724 8.41557L196.898 0.232452L210.758 14.0686ZM188.171 37.2739L202.347 23.161L211.034 31.858L188.171 54.747V37.2739ZM210.758 61.0326V77.3593L188.724 55.3004L196.858 47.1569L210.758 61.0326ZM187.934 55.7353V55.6562L210.995 78.7429L197.332 92.4209H197.214L188.053 101.553V92.5791H188.171V84.2774L202.347 70.1645L187.934 55.7353ZM210.758 107.522V124.046L188.724 101.988L196.937 93.765L210.758 107.522ZM210.758 264.82L188.724 242.761L196.858 234.617L210.758 248.454V264.82ZM188.171 242.168V224.695L202.347 210.582L211.034 219.279L188.171 242.168ZM188.724 195.837L196.898 187.653L210.758 201.49V217.895L188.724 195.837ZM188.171 195.283V177.731L202.308 163.658L211.034 172.394L188.171 195.283ZM188.724 148.912L196.937 140.689L210.758 154.486V170.971L188.724 148.912ZM188.171 148.359V130.727L202.268 116.694L211.034 125.47L188.171 148.359ZM188.171 -39.0623V-56.6935L202.268 -70.7274L211.034 -61.9513L188.171 -39.0623ZM211.548 264.82V248.493L225.447 234.657L233.581 242.8L211.548 264.82ZM234.253 242.287L211.311 219.279L219.998 210.582L234.253 224.813V242.287ZM211.548 217.895V201.49L225.407 187.653L233.581 195.837L211.548 217.895ZM234.253 195.362L211.271 172.355L219.998 163.618L234.213 177.81V195.362H234.253ZM211.548 170.971V154.486L225.368 140.689L233.581 148.912L211.548 170.971ZM234.253 148.438L211.271 125.43L220.037 116.654L234.253 130.806V148.438ZM211.548 124.046V107.522L225.368 93.765L233.581 101.988L211.548 124.046ZM234.253 92.4209V92.5395V101.513L225.092 92.3814H224.973L211.311 78.7034L219.998 70.0063L234.253 84.1983V92.4209ZM211.548 77.3988V61.0721L225.447 47.2359L233.581 55.3795L211.548 77.3988ZM234.253 54.8656L211.271 31.858L219.958 23.161L234.213 37.3925V54.8656H234.253ZM211.548 30.4744V14.0686L225.407 0.232452L233.581 8.41557L211.548 30.4744ZM234.253 7.94118L211.271 -15.0664L219.998 -23.803L234.213 -9.611V7.94118H234.253ZM211.548 -16.45V-32.9348L225.368 -46.7315L233.581 -38.5089L211.548 -16.45ZM234.253 -38.9832L211.271 -61.9908L220.037 -70.7669L234.253 -56.6145V-38.9832ZM258.576 -79.8988L272.397 -93.6559L280.61 -85.4333L258.576 -63.3744V-79.8988ZM243.966 -93.6559L257.787 -79.8988V-63.3744L235.753 -85.4333L243.966 -93.6559ZM235.082 92.5395V92.4209V84.2774L249.337 70.0854L258.024 78.7824L244.361 92.4605H244.203L235.042 101.592V92.5395H235.082ZM235.714 55.34L243.848 47.1964L257.747 61.0326V77.3593L235.714 55.34ZM257.747 107.522V124.046L235.714 101.988L243.927 93.765L257.747 107.522ZM257.747 264.82L235.714 242.761L243.848 234.617L257.747 248.454V264.82ZM235.082 242.287V224.813L249.337 210.582L258.024 219.279L235.082 242.287ZM235.714 195.837L243.887 187.653L257.747 201.49V217.895L235.714 195.837ZM235.082 195.362V177.81L249.297 163.618L258.024 172.355L235.082 195.362ZM235.714 148.912L243.927 140.689L257.747 154.486V170.971L235.714 148.912ZM235.082 148.438V130.806L249.297 116.654L258.063 125.43L235.082 148.438ZM235.082 54.8656V37.3925L249.337 23.161L258.024 31.858L235.082 54.8656ZM235.714 8.41557L243.887 0.232452L257.747 14.0686V30.4744L235.714 8.41557ZM235.082 7.94118V-9.611L249.297 -23.803L258.024 -15.0664L235.082 7.94118ZM235.714 -38.5089L243.927 -46.7315L257.747 -32.9348V-16.45L235.714 -38.5089ZM235.082 -38.9832V-56.575L249.297 -70.7274L258.024 -61.9513L235.082 -38.9832ZM258.576 264.82V248.493L272.476 234.657L280.61 242.8L258.576 264.82ZM281.281 242.287L258.3 219.279L266.987 210.582L281.242 224.813V242.287H281.281ZM258.576 217.895V201.49L272.436 187.653L280.61 195.837L258.576 217.895ZM281.281 195.362L258.3 172.355L267.027 163.618L281.242 177.81V195.362H281.281ZM258.576 170.971V154.486L272.397 140.689L280.61 148.912L258.576 170.971ZM281.281 148.438L258.3 125.43L267.066 116.654L281.281 130.806V148.438ZM258.576 124.046V107.522L272.397 93.765L280.61 101.988L258.576 124.046ZM281.281 92.4209V92.5395V101.513L272.12 92.3814H272.002L258.34 78.7034L267.027 70.0063L281.281 84.1983V92.4209ZM258.576 77.3988V61.0721L272.476 47.2359L280.61 55.3795L258.576 77.3988ZM281.281 54.8656L258.3 31.858L266.987 23.161L281.242 37.3925V54.8656H281.281ZM258.576 30.4744V14.0686L272.436 0.232452L280.61 8.41557L258.576 30.4744ZM281.281 7.94118L258.3 -15.0664L267.027 -23.803L281.242 -9.611V7.94118H281.281ZM258.576 -16.45V-32.9348L272.397 -46.7315L280.61 -38.5089L258.576 -16.45ZM281.281 -38.9832L258.3 -61.9908L267.066 -70.7669L281.281 -56.6145V-38.9832ZM305.566 -79.8988L319.386 -93.6559L327.6 -85.4333L305.566 -63.3744V-79.8988ZM290.956 -93.6559L304.776 -79.8988V-63.3744L282.742 -85.4333L290.956 -93.6559ZM282.071 92.5395V92.4209V84.2774L296.326 70.0854L305.013 78.7824L291.351 92.4605H291.232L282.071 101.592V92.5395ZM282.742 55.34L290.877 47.1964L304.776 61.0326V77.3593L282.742 55.34ZM304.776 107.522V124.046L282.742 101.988L290.956 93.765L304.776 107.522ZM304.776 264.82L282.742 242.761L290.877 234.617L304.776 248.454V264.82ZM282.071 242.287V224.813L296.326 210.582L305.013 219.279L282.071 242.287ZM282.742 195.837L290.916 187.653L304.776 201.49V217.895L282.742 195.837ZM282.071 195.362V177.81L296.286 163.618L305.013 172.355L282.071 195.362ZM282.742 148.912L290.956 140.689L304.776 154.486V170.971L282.742 148.912ZM282.071 148.438V130.806L296.286 116.654L305.053 125.43L282.071 148.438ZM282.071 54.8656V37.3925L296.326 23.161L305.013 31.858L282.071 54.8656ZM282.742 8.41557L290.916 0.232452L304.776 14.0686V30.4744L282.742 8.41557ZM282.071 7.94118V-9.611L296.286 -23.803L305.013 -15.0664L282.071 7.94118ZM282.742 -38.5089L290.956 -46.7315L304.776 -32.9348V-16.45L282.742 -38.5089ZM282.071 -38.9832V-56.575L296.286 -70.7274L305.053 -61.9513L282.071 -38.9832ZM305.566 264.82V248.493L319.465 234.657L327.6 242.8L305.566 264.82ZM328.271 242.287L305.329 219.279L314.016 210.582L328.271 224.813V242.287ZM305.566 217.895V201.49L319.426 187.653L327.6 195.837L305.566 217.895ZM328.271 195.362L305.289 172.355L314.016 163.618L328.231 177.81V195.362H328.271ZM305.566 170.971V154.486L319.386 140.689L327.6 148.912L305.566 170.971ZM328.271 148.438L305.289 125.43L314.056 116.654L328.271 130.806V148.438ZM305.566 124.046V107.522L319.386 93.765L327.6 101.988L305.566 124.046ZM328.271 92.4209V92.5395V101.513L319.11 92.3814H318.991L305.329 78.7034L314.016 70.0063L328.271 84.1983V92.4209ZM305.566 77.3988V61.0721L319.465 47.2359L327.6 55.3795L305.566 77.3988ZM328.271 54.8656L305.289 31.858L313.977 23.161L328.231 37.3925V54.8656H328.271ZM305.566 30.4744V14.0686L319.426 0.232452L327.6 8.41557L305.566 30.4744ZM328.271 7.94118L305.289 -15.0664L314.016 -23.803L328.231 -9.611V7.94118H328.271ZM305.566 -16.45V-32.9348L319.386 -46.7315L327.6 -38.5089L305.566 -16.45ZM328.271 -38.9832L305.289 -61.9908L314.095 -70.7274L328.31 -56.575V-38.9832H328.271ZM352.595 -79.8988L366.415 -93.6559L374.629 -85.4333L352.595 -63.3744V-79.8988ZM337.985 -93.6559L351.805 -79.8988V-63.3744L329.771 -85.4333L337.985 -93.6559ZM329.1 -9.611L343.315 -23.803L352.042 -15.0664L329.1 7.94118V-9.611ZM329.732 -38.5089L337.945 -46.7315L351.766 -32.9348V-16.45L329.732 -38.5089ZM351.766 14.0686V30.4744L329.732 8.41557L337.906 0.232452L351.766 14.0686ZM329.1 37.3925L343.355 23.161L352.042 31.858L329.1 54.8656V37.3925ZM351.766 61.0326V77.3593L329.732 55.3004L337.866 47.1569L351.766 61.0326ZM329.1 92.5395V92.4209V84.2774L343.355 70.0854L352.042 78.7824L338.38 92.4605H338.261L329.1 101.553V92.5395ZM351.766 107.522V124.046L329.732 101.988L337.945 93.765L351.766 107.522ZM351.766 264.82L329.732 242.761L337.866 234.617L351.766 248.454V264.82ZM329.1 242.287V224.813L343.355 210.582L352.042 219.279L329.1 242.287ZM329.732 195.837L337.906 187.653L351.766 201.49V217.895L329.732 195.837ZM329.1 195.362V177.81L343.315 163.618L352.042 172.355L329.1 195.362ZM329.732 148.912L337.945 140.689L351.766 154.486V170.971L329.732 148.912ZM329.1 148.438V130.806L343.315 116.654L352.081 125.43L329.1 148.438ZM329.1 -38.9832V-56.575L343.315 -70.7274L352.081 -61.9513L329.1 -38.9832ZM352.595 264.82V248.493L366.494 234.657L374.629 242.8L352.595 264.82ZM375.3 242.287L352.318 219.279L361.006 210.582L375.26 224.813V242.287H375.3ZM352.595 217.895V201.49L366.455 187.653L374.629 195.837L352.595 217.895ZM375.3 195.362L352.318 172.355L361.045 163.618L375.26 177.81V195.362H375.3ZM352.595 170.971V154.486L366.415 140.689L374.629 148.912L352.595 170.971ZM375.3 148.438L352.318 125.43L361.085 116.654L375.3 130.806V148.438ZM352.595 124.046V107.522L366.415 93.765L374.629 101.988L352.595 124.046ZM375.3 92.4209V92.5395V101.513L366.139 92.3814H366.02L352.358 78.7034L361.045 70.0063L375.3 84.1983V92.4209ZM352.595 77.3988V61.0721L366.494 47.2359L374.629 55.3795L352.595 77.3988ZM375.3 54.8656L352.318 31.858L361.006 23.161L375.26 37.3925V54.8656H375.3ZM352.595 30.4744V14.0686L366.455 0.232452L374.629 8.41557L352.595 30.4744ZM375.3 7.94118L352.318 -15.0664L361.045 -23.803L375.26 -9.611V7.94118H375.3ZM352.595 -16.45V-32.9348L366.415 -46.7315L374.629 -38.5089L352.595 -16.45ZM375.3 -38.9832L352.318 -61.9908L361.085 -70.7669L375.3 -56.6145V-38.9832ZM399.584 -79.8988L413.405 -93.6559L421.618 -85.4333L399.584 -63.3744V-79.8988ZM384.974 -93.6559L398.794 -79.8988V-63.3744L376.761 -85.4333L384.974 -93.6559ZM376.09 -9.611L390.305 -23.803L399.031 -15.0664L376.05 7.94118V-9.611H376.09ZM376.761 -38.5089L384.974 -46.7315L398.794 -32.9348V-16.45L376.761 -38.5089ZM398.794 14.0686V30.4744L376.761 8.41557L384.935 0.232452L398.794 14.0686ZM376.09 37.3925L390.344 23.161L399.031 31.858L376.05 54.8656V37.3925H376.09ZM398.794 61.0326V77.3593L376.761 55.3004L384.895 47.1569L398.794 61.0326ZM376.09 92.5395V92.4209V84.2774L390.344 70.0854L399.031 78.7824L385.369 92.4605H385.25L376.09 101.592V92.5395ZM398.794 107.522V124.046L376.761 101.988L384.974 93.765L398.794 107.522ZM398.794 264.82L376.761 242.761L384.895 234.617L398.794 248.454V264.82ZM376.09 242.287V224.813L390.344 210.582L399.031 219.279L376.09 242.287ZM376.761 195.837L384.935 187.653L398.794 201.49V217.895L376.761 195.837ZM376.09 195.362V177.81L390.305 163.618L399.031 172.355L376.09 195.362ZM376.761 148.912L384.974 140.689L398.794 154.486V170.971L376.761 148.912ZM376.09 148.438V130.806L390.305 116.654L399.071 125.43L376.09 148.438ZM376.09 -38.9832V-56.575L390.305 -70.7274L399.071 -61.9513L376.09 -38.9832ZM399.584 264.82V248.493L413.484 234.657L421.618 242.8L399.584 264.82ZM422.289 242.287L399.308 219.279L407.995 210.582L422.25 224.813V242.287H422.289ZM399.584 217.895V201.49L413.444 187.653L421.618 195.837L399.584 217.895ZM422.289 195.362L399.308 172.355L408.034 163.618L422.25 177.81V195.362H422.289ZM399.584 170.971V154.486L413.405 140.689L421.618 148.912L399.584 170.971ZM422.289 148.438L399.308 125.43L408.074 116.654L422.289 130.806V148.438ZM399.584 124.046V107.522L413.405 93.765L421.618 101.988L399.584 124.046ZM422.289 92.4209V92.5395V101.513L413.128 92.3814H413.01L399.347 78.7034L408.034 70.0063L422.289 84.1983V92.4209ZM399.584 77.3988V61.0721L413.484 47.2359L421.618 55.3795L399.584 77.3988ZM422.289 54.8656L399.308 31.858L407.995 23.161L422.25 37.3925V54.8656H422.289ZM399.584 30.4744V14.0686L413.444 0.232452L421.618 8.41557L399.584 30.4744ZM422.289 7.94118L399.308 -15.0664L408.034 -23.803L422.25 -9.611V7.94118H422.289ZM399.584 -16.45V-32.9348L413.405 -46.7315L421.618 -38.5089L399.584 -16.45ZM422.289 -38.9832L399.308 -61.9908L408.074 -70.7669L422.289 -56.6145V-38.9832Z" fill="#D66853"/>
</g>
</svg>
